<svg width="48" height="46" viewBox="0 0 48 46" fill="none" xmlns="http://www.w3.org/2000/svg">
<path d="M21.3972 45.2222V41.6842C21.3971 38.8967 20.7893 33.9259 19.5736 26.7719C19.0245 23.3996 18.1225 19.8909 16.8676 16.2456C15.593 12.5419 14.2596 9.63745 12.8674 7.53216C11.7889 5.93375 10.5046 5.13454 9.01431 5.1345C7.32796 5.13454 6.15144 5.77781 5.48476 7.06432C4.87688 8.25344 4.57295 9.54974 4.57296 10.9532C4.57295 13.9162 5.64162 16.5965 7.77897 18.9941H2.77877C1.05321 16.3626 0.190428 13.5848 0.19043 10.6608C0.190428 7.60042 1.01399 5.20276 2.66112 3.46783C4.36706 1.6745 6.43577 0.777815 8.86725 0.777771C12.0046 0.777815 14.4557 2.06436 16.2205 4.63742C18.2205 7.54194 19.8873 11.0702 21.2207 15.2222C22.1619 18.2437 22.956 21.5868 23.6031 25.2515C24.2502 21.5868 25.0443 18.2437 25.9856 15.2222C27.2405 11.1677 28.9072 7.63941 30.9858 4.63742C32.7505 2.06436 35.2016 0.777815 38.339 0.777771C40.7704 0.777815 42.8391 1.6745 44.5451 3.46783C46.1922 5.20276 47.0158 7.60042 47.0158 10.6608C47.0158 13.5848 46.153 16.3626 44.4275 18.9941H39.4273C41.5646 16.5965 42.6333 13.9162 42.6333 10.9532C42.6333 9.54974 42.3293 8.25344 41.7215 7.06432C41.0548 5.77781 39.8782 5.13454 38.1919 5.1345C36.7017 5.13454 35.4173 5.93375 34.3389 7.53216C32.9466 9.63745 31.6132 12.5419 30.3387 16.2456C29.0837 19.8909 28.1817 23.3996 27.6327 26.7719C26.4169 33.9259 25.8091 38.8967 25.8091 41.6842V45.2222H21.3972Z" fill="#094BB0"/>
</svg>
