<svg width="48" height="47" viewBox="0 0 48 47" fill="none" xmlns="http://www.w3.org/2000/svg">
<path d="M25.2546 32.3792C24.9003 31.8535 24.5657 31.2986 24.2507 30.7145C22.6563 27.7551 21.8591 24.4939 21.8591 20.9309V18.4778C21.8591 15.0122 21.6524 12.3935 21.239 10.6217C20.6091 7.89595 19.8316 6.53306 18.9064 6.53303C17.9616 6.53306 16.6526 8.27561 14.9794 11.7607C13.6606 14.5059 13.0011 17.4264 13.0012 20.5221V27.8525H8.57219V18.4778C8.57217 15.0316 8.31627 12.4129 7.8045 10.6217C7.01711 7.89595 5.45222 6.53306 3.10979 6.53303H0.983887V0.984131H3.46411C6.43644 0.984178 8.70996 2.30812 10.2847 4.95597C11.1508 6.41624 11.7315 7.85701 12.0268 9.27827C12.6173 7.54549 13.4047 6.04632 14.3889 4.78074C16.377 2.24971 18.0994 0.984178 19.556 0.984131C20.9536 0.984178 22.4398 2.30812 24.0145 4.95597C24.8609 6.35783 25.3924 7.7986 25.609 9.27827C26.0026 11.9846 26.1995 14.3112 26.1995 16.2582V19.4999C26.1995 22.2841 26.5735 24.6692 27.3215 26.6551C28.0498 25.078 28.8765 23.8222 29.8017 22.8877C30.6875 21.9921 31.8685 21.2522 33.3449 20.6681C34.5259 20.2009 35.894 19.9672 37.4491 19.9672C38.7679 19.9672 39.9883 20.2009 41.1103 20.6681C42.252 21.1354 43.2854 21.8266 44.2106 22.7416C45.1161 23.6373 45.8148 24.6692 46.307 25.8373C46.7794 26.9861 47.0156 28.2029 47.0156 29.4879C47.0156 30.7535 46.7794 31.9606 46.307 33.1093C45.8148 34.2775 45.1161 35.3094 44.2106 36.205C43.3642 37.0422 42.3307 37.7334 41.1103 38.2785C40.067 38.7458 38.7482 38.9795 37.1538 38.9795C35.5396 38.9795 34.024 38.7458 32.6067 38.2785C31.1697 37.8113 29.8411 37.0909 28.6207 36.1174C28.286 36.9741 27.9317 37.7821 27.5577 38.5414C26.6916 40.2547 25.6581 41.6079 24.4574 42.6008C22.9023 43.8858 21.4555 44.7815 20.117 45.2877C18.5029 45.9107 16.8101 46.2222 15.0385 46.2222H13.385V41.8415H15.0385C16.3573 41.8415 17.4793 41.6371 18.4045 41.2282C19.5462 40.7415 20.4812 40.1574 21.2095 39.4759C22.0362 38.7361 22.7252 37.8697 23.2764 36.8767C23.9062 35.7475 24.5657 34.2483 25.2546 32.3792ZM30.2741 31.2402C31.7504 32.8368 33.1775 33.8297 34.5555 34.2191C35.4412 34.4722 36.3172 34.5988 37.1833 34.5988C38.1085 34.5988 38.8565 34.4722 39.4273 34.2191C40.0572 33.9465 40.6182 33.5766 41.1103 33.1093C41.5827 32.642 41.9666 32.0872 42.2619 31.4446C42.5177 30.88 42.6457 30.2278 42.6457 29.4879C42.6457 28.787 42.5177 28.1251 42.2619 27.502C42.0256 26.9179 41.6418 26.363 41.1103 25.8373C40.6182 25.3701 40.0572 25.0002 39.4273 24.7276C38.8368 24.4745 38.1872 24.3479 37.4786 24.3479C36.8093 24.3479 36.1105 24.4745 35.3822 24.7276C34.5751 25.0196 33.9649 25.3896 33.5516 25.8373C32.1539 27.3949 31.0615 29.1959 30.2741 31.2402Z" fill="#094BB0"/>
</svg>
