<svg width="49" height="32" viewBox="0 0 49 32" fill="none" xmlns="http://www.w3.org/2000/svg">
<path d="M16.7374 12.1047L13.2076 6.17515L2.67916 12.1047L0.396973 8.28015L14.9117 0.126984L18.411 6.05656L28.9699 0.126984L32.4692 6.05656L43.0281 0.126984L48.8097 9.88113L44.8539 12.1047L41.3241 6.17515L30.7956 12.1047L27.2659 6.17515L16.7374 12.1047ZM16.7374 31.0794L13.2076 25.1498L2.67916 31.0794L0.396973 27.2548L14.9117 19.1016L18.411 25.0312L28.9699 19.1016L32.4692 25.0312L43.0281 19.1016L48.8097 28.8558L44.8539 31.0794L41.3241 25.1498L30.7956 31.0794L27.2659 25.1498L16.7374 31.0794Z" fill="#094BB0"/>
</svg>
