<svg width="48" height="57" viewBox="0 0 48 57" fill="none" xmlns="http://www.w3.org/2000/svg">
<path d="M29.8867 31.2464H18.1132C17.8132 36.2284 16.7758 40.8707 15.0011 45.1733C13.3763 49.1236 11.0266 52.923 7.95196 56.5714H0.19043C4.76485 52.0927 7.96444 47.5636 9.78923 42.9842C11.289 39.2603 12.1764 35.3477 12.4514 31.2464H1.31529V25.585H12.4514C12.1764 21.4837 11.289 17.5711 9.78923 13.8472C7.93945 9.26784 4.73985 4.72619 0.19043 0.222229H7.95196C11.0016 3.8707 13.3513 7.68266 15.0011 11.6581C16.8008 15.9608 17.8382 20.6031 18.1132 25.585H29.8867C30.1616 20.6031 31.199 15.9608 32.9988 11.6581C34.6486 7.68266 36.9983 3.8707 40.048 0.222229H47.8095C43.26 4.72619 40.0604 9.26784 38.2107 13.8472C36.7108 17.5711 35.8234 21.4837 35.5485 25.585H46.3097V31.2464H35.5485C35.8234 35.3477 36.7108 39.2603 38.2107 42.9842C40.0354 47.5636 43.235 52.0927 47.8095 56.5714H40.048C36.9733 52.923 34.6236 49.1236 32.9988 45.1733C31.224 40.7952 30.1866 36.1529 29.8867 31.2464Z" fill="#094BB0"/>
</svg>
