<svg width="50" height="48" viewBox="0 0 50 48" fill="none" xmlns="http://www.w3.org/2000/svg">
<path d="M10.7264 11.6116C10.1622 10.2802 9.35778 9.0944 8.31307 8.05419C7.35192 7.09727 6.17139 6.30674 4.77146 5.6826C3.55958 5.14175 2.17011 4.8713 0.603027 4.87126V0.190491C2.75515 0.190537 4.74011 0.5754 6.55794 1.34508C8.45931 2.15646 10.1518 3.29025 11.6353 4.74644C13.1397 6.22353 14.2889 7.919 15.0829 9.83288C15.647 11.1643 16.4514 12.3501 17.4962 13.3903C18.4573 14.3473 19.6378 15.1378 21.0378 15.7619C22.2496 16.3028 23.6391 16.5732 25.2062 16.5732C26.7106 16.5732 28.1001 16.3028 29.3746 15.7619C30.7118 15.2002 31.8924 14.4097 32.9162 13.3903C33.9609 12.3501 34.7654 11.1643 35.3295 9.83288C36.1235 7.919 37.2727 6.22353 38.7771 4.74644C40.2606 3.29025 41.953 2.15646 43.8545 1.34508C45.6722 0.5754 47.6572 0.190537 49.8094 0.190491V4.87126C48.2422 4.8713 46.8528 5.14175 45.6409 5.6826C44.241 6.30674 43.0604 7.09727 42.0993 8.05419C41.0546 9.0944 40.2501 10.2802 39.686 11.6116C38.892 13.5047 37.7428 15.2002 36.2385 16.698C35.5071 17.4262 34.5564 18.1647 33.3864 18.9136C34.5564 19.6625 35.5071 20.401 36.2385 21.1291C37.7428 22.627 38.892 24.3225 39.686 26.2156C40.4591 28.0879 40.8456 30.0954 40.8457 32.2382C40.8456 34.3185 40.4591 36.2949 39.686 38.1672C38.8711 40.0811 37.7219 41.7766 36.2385 43.2536C34.7549 44.7098 33.0625 45.8436 31.1611 46.6549C29.3433 47.4247 27.3583 47.8095 25.2062 47.8095C22.9496 47.8095 20.9646 47.4247 19.2513 46.6549C17.2663 45.7604 15.5739 44.6266 14.174 43.2536C12.6904 41.7766 11.5412 40.0811 10.7264 38.1672C9.95327 36.2949 9.56672 34.3185 9.56673 32.2382C9.56672 30.0954 9.95327 28.0879 10.7264 26.2156C11.5621 24.1977 12.7113 22.5022 14.174 21.1291C15.0724 20.2762 16.0335 19.5377 17.0574 18.9136C16.0126 18.2895 15.0515 17.551 14.174 16.698C12.7113 15.2834 11.5621 13.5879 10.7264 11.6116ZM29.3746 22.0653C28.1001 21.5244 26.7106 21.254 25.2062 21.254C23.7018 21.254 22.3123 21.5244 21.0378 22.0653C19.7423 22.6478 18.5618 23.4383 17.4962 24.4369C16.4096 25.5603 15.6052 26.7461 15.0829 27.9943C14.5396 29.3049 14.268 30.7195 14.268 32.2382C14.268 33.6944 14.5396 35.0779 15.0829 36.3885C15.6052 37.6367 16.4096 38.8225 17.4962 39.9458C18.5618 40.9444 19.7423 41.7349 21.0378 42.3174C22.3123 42.8583 23.7018 43.1288 25.2062 43.1288C26.7106 43.1288 28.1001 42.8583 29.3746 42.3174C30.6701 41.7349 31.8506 40.9444 32.9162 39.9458C34.0027 38.8225 34.8071 37.6367 35.3295 36.3885C35.8728 35.0779 36.1444 33.6944 36.1444 32.2382C36.1444 30.7195 35.8728 29.3049 35.3295 27.9943C34.8071 26.7461 34.0027 25.5603 32.9162 24.4369C31.8506 23.4383 30.6701 22.6478 29.3746 22.0653Z" fill="#094BB0"/>
</svg>
