<svg width="48" height="49" viewBox="0 0 48 49" fill="none" xmlns="http://www.w3.org/2000/svg">
<path d="M37.578 42.1836C41.0721 42.6629 44.4825 43.3192 47.8093 44.1526V48.8095C40.4025 46.9551 32.5983 46.0279 24.3966 46.0279C16.1948 46.0279 8.39057 46.9551 0.983887 48.8095V44.1526C4.31061 43.3192 7.72104 42.6629 11.2152 42.1836V7.0227C7.72104 6.54351 4.31061 5.88718 0.983887 5.05369V0.39682C8.39057 2.25128 16.1948 3.17848 24.3966 3.17844C32.5983 3.17848 40.4025 2.25128 47.8093 0.39682V5.05369C44.4825 5.88718 41.0721 6.54351 37.578 7.0227V42.1836ZM32.8704 7.52277C30.0876 7.75201 27.263 7.8666 24.3966 7.86656C21.5301 7.8666 18.7055 7.75201 15.9228 7.52277V41.6836C18.7055 41.4544 21.5301 41.3398 24.3966 41.3398C27.263 41.3398 30.0876 41.4544 32.8704 41.6836V7.52277Z" fill="#094BB0"/>
</svg>
