<svg width="48" height="38" viewBox="0 0 48 38" fill="none" xmlns="http://www.w3.org/2000/svg">
<path d="M0.983887 26.5834C2.9138 27.8077 4.76949 28.7998 6.55096 29.5598C11.0894 31.5229 16.1263 32.5045 21.6616 32.5045C25.1397 32.5045 28.4375 32.114 31.5551 31.3329C31.2793 31.1007 31.0248 30.8685 30.7916 30.6363C29.8372 29.6653 29.1373 28.631 28.692 27.5333C28.2254 26.3934 27.9921 25.1797 27.9921 23.892C27.9921 22.6255 28.2254 21.4223 28.692 20.2824C29.1798 19.0792 29.8796 18.0448 30.7916 17.1794C31.7883 16.2295 32.8169 15.5329 33.8773 15.0896C34.9801 14.6252 36.189 14.393 37.5039 14.393C38.8824 14.393 40.0912 14.6252 41.1304 15.0896C42.3605 15.6384 43.389 16.335 44.2162 17.1794C45.1705 18.1504 45.8704 19.1847 46.3158 20.2824C46.7823 21.4223 47.0156 22.6255 47.0156 23.892C47.0156 25.1586 46.7823 26.3723 46.3158 27.5333C45.8067 28.7998 45.0008 29.887 43.8981 30.7946C42.3498 32.0612 40.579 33.1166 38.5855 33.961C33.4107 36.1563 27.7694 37.254 21.6616 37.254C15.4052 37.254 9.76395 36.1563 4.73768 33.961C3.44401 33.391 2.19274 32.7894 0.983887 32.1562V26.5834ZM35.6906 28.3249C36.242 28.5571 36.8464 28.6732 37.5039 28.6732C38.1613 28.6732 38.7657 28.5571 39.3172 28.3249C39.8897 28.0716 40.4093 27.7233 40.8759 27.28C41.3001 26.8578 41.65 26.3407 41.9257 25.7285C42.159 25.1586 42.2756 24.5464 42.2757 23.892C42.2756 23.2588 42.159 22.6571 41.9257 22.0872C41.6924 21.5384 41.3425 21.0212 40.8759 20.5357C40.473 20.1346 39.9534 19.7863 39.3172 19.4908C38.7657 19.2586 38.1613 19.1425 37.5039 19.1425C36.8464 19.1425 36.242 19.2586 35.6906 19.4908C35.118 19.7441 34.5984 20.0924 34.1318 20.5357C33.7076 20.9579 33.3577 21.475 33.082 22.0872C32.8487 22.6571 32.7321 23.2588 32.7321 23.892C32.7321 24.5464 32.8487 25.1586 33.082 25.7285C33.3153 26.2773 33.6652 26.7945 34.1318 27.28C34.5347 27.6811 35.0543 28.0294 35.6906 28.3249ZM47.0156 11.4166C45.0857 10.1923 43.23 9.2002 41.4486 8.44025C36.91 6.47715 31.8731 5.49558 26.3379 5.49555C22.8598 5.49558 19.562 5.8861 16.4444 6.66709C16.7201 6.89933 16.9746 7.13153 17.2079 7.36369C18.1623 8.33474 18.8621 9.36907 19.3075 10.4667C19.7741 11.6066 20.0074 12.8204 20.0074 14.108C20.0074 15.3746 19.7741 16.5778 19.3075 17.7176C18.8197 18.9209 18.1199 19.9552 17.2079 20.8206C16.2111 21.7706 15.1825 22.4672 14.1222 22.9104C13.0194 23.3749 11.8105 23.607 10.4956 23.607C9.1171 23.607 7.90825 23.3749 6.86908 22.9104C5.639 22.3616 4.61044 21.665 3.78333 20.8206C2.82897 19.8497 2.12911 18.8153 1.68375 17.7176C1.21718 16.5778 0.983887 15.3746 0.983887 14.108C0.983887 12.8415 1.21718 11.6277 1.68375 10.4667C2.19274 9.2002 2.99864 8.11309 4.10145 7.20537C5.64962 5.93887 7.42047 4.88343 9.41403 4.03903C14.5887 1.84374 20.23 0.746074 26.3379 0.746033C32.5942 0.746074 38.2355 1.84374 43.2618 4.03903C44.5555 4.60901 45.8067 5.21061 47.0156 5.84385V11.4166ZM12.3089 9.67512C11.7575 9.44296 11.1531 9.32686 10.4956 9.32682C9.83817 9.32686 9.23375 9.44296 8.68235 9.67512C8.10973 9.92846 7.59013 10.2768 7.12357 10.72C6.6994 11.1422 6.34948 11.6594 6.07378 12.2715C5.84049 12.8415 5.72384 13.4537 5.72385 14.108C5.72384 14.7413 5.84049 15.3429 6.07378 15.9128C6.30706 16.4617 6.65698 16.9788 7.12357 17.4643C7.52651 17.8654 8.04611 18.2137 8.68235 18.5092C9.23375 18.7414 9.83817 18.8575 10.4956 18.8575C11.1531 18.8575 11.7575 18.7414 12.3089 18.5092C12.8815 18.2559 13.4011 17.9076 13.8677 17.4643C14.2918 17.0422 14.6418 16.525 14.9175 15.9128C15.1507 15.3429 15.2674 14.7413 15.2674 14.108C15.2674 13.4537 15.1507 12.8415 14.9175 12.2715C14.6842 11.7227 14.3342 11.2056 13.8677 10.72C13.4647 10.319 12.9451 9.97068 12.3089 9.67512Z" fill="#094BB0"/>
</svg>
