<svg width="40" height="49" viewBox="0 0 40 49" fill="none" xmlns="http://www.w3.org/2000/svg">
<path d="M27.9042 38.0893C27.7157 38.8186 27.6215 39.4229 27.6215 39.9021C27.6215 40.6314 27.7157 41.2252 27.9042 41.6836C28.1555 42.2253 28.4487 42.6525 28.7838 42.965C29.1607 43.3192 29.5795 43.6005 30.0403 43.8089C30.501 44.0172 31.213 44.1214 32.1763 44.1214C33.0349 44.1214 33.7888 43.9756 34.4381 43.6838C35.2547 43.3296 35.9458 42.8817 36.5113 42.3399L39.841 45.6529C38.9196 46.528 37.7049 47.3197 36.1972 48.0282C35.1082 48.5491 33.7679 48.8095 32.1763 48.8095C30.5638 48.8095 29.2654 48.5907 28.2812 48.1532C27.1503 47.6531 26.2079 47.028 25.454 46.2779C24.6163 45.4445 23.9881 44.5173 23.5693 43.4963C23.1504 42.4545 22.941 41.2564 22.941 39.9021C22.941 38.4227 23.1609 37.1309 23.6007 36.0266C25.1922 32.1302 26.7419 29.1923 28.2498 27.2129C30.1345 24.7334 31.5899 22.0977 32.6161 19.3056C33.0768 18.0763 33.3072 16.6803 33.3072 15.1175C33.3072 13.4298 33.0768 12.0234 32.6161 10.8982C32.1763 9.81478 31.4852 8.79382 30.5429 7.83532C29.7261 7.00191 28.7104 6.31432 27.4959 5.77254C26.4697 5.31418 25.276 5.08499 23.9148 5.08495C22.6164 5.08499 21.4227 5.31418 20.3338 5.77254C19.2867 6.21014 18.271 6.89773 17.2867 7.83532C16.3862 8.68963 15.6951 9.7106 15.2135 10.8982C14.7528 12.0234 14.5224 13.2215 14.5224 14.4925C14.5224 15.8468 14.7528 17.0345 15.2135 18.0554C15.7789 19.2848 16.5852 20.8267 17.6323 22.681C19.0354 25.1189 19.7369 27.4317 19.7369 29.6195C19.7369 30.8696 19.5065 32.0573 19.0458 33.1824C18.606 34.2659 17.915 35.2869 16.9726 36.2453C16.1559 37.0788 15.1402 37.7664 13.9256 38.3081C12.8994 38.7665 11.7057 38.9957 10.3445 38.9957C9.04613 38.9957 7.85245 38.7665 6.76349 38.3081C5.71639 37.8706 4.70072 37.183 3.71646 36.2453C2.81596 35.3911 2.12488 34.3701 1.64323 33.1824C1.1825 32.0573 0.95214 30.8696 0.952148 29.6195C0.95214 28.3485 1.1825 27.1504 1.64323 26.0252C2.083 24.9418 2.77407 23.9208 3.71646 22.9623C4.53318 22.1289 5.54886 21.4413 6.76349 20.8996C7.78963 20.4412 8.98331 20.212 10.3445 20.212H10.8786C10.1665 18.6076 9.81051 16.7115 9.81052 14.5237C9.81051 12.5026 10.156 10.6899 10.8471 9.08548C11.601 7.33529 12.6376 5.80384 13.957 4.49112C15.2763 3.17849 16.8051 2.15752 18.5432 1.42822C20.1767 0.740663 21.9672 0.396868 23.9148 0.396828C25.9671 0.396868 27.7576 0.740663 29.2864 1.42822C31.1083 2.24086 32.637 3.26183 33.8726 4.49112C35.2547 5.86635 36.2914 7.3978 36.9825 9.08548C37.6735 10.7732 38.0191 12.7943 38.0191 15.1488C38.0191 17.4825 37.6735 19.4723 36.9825 21.1183C35.6841 24.2646 34.082 27.1608 32.1763 29.807C30.0193 32.8699 28.5953 35.6307 27.9042 38.0893ZM12.1351 25.2439C11.5906 25.0147 10.9937 24.9001 10.3445 24.9001C9.69533 24.9001 9.09849 25.0147 8.55402 25.2439C7.98857 25.4939 7.4755 25.8377 7.01479 26.2753C6.55406 26.7545 6.20852 27.265 5.97818 27.8067C5.7478 28.3693 5.63262 28.9736 5.63264 29.6195C5.63262 30.2446 5.7478 30.8384 5.97818 31.401C6.20852 31.9427 6.55406 32.4532 7.01479 32.9324C7.4755 33.37 7.98857 33.7138 8.55402 33.9638C9.09849 34.193 9.69533 34.3076 10.3445 34.3076C10.9937 34.3076 11.5906 34.193 12.1351 33.9638C12.7005 33.7138 13.2135 33.37 13.6743 32.9324C14.135 32.4532 14.4805 31.9427 14.7109 31.401C14.9412 30.8384 15.0564 30.2446 15.0564 29.6195C15.0564 28.9736 14.9412 28.3693 14.7109 27.8067C14.4805 27.265 14.135 26.7545 13.6743 26.2753C13.2135 25.8377 12.7005 25.4939 12.1351 25.2439Z" fill="#094BB0"/>
</svg>
