<svg width="48" height="58" viewBox="0 0 48 58" fill="none" xmlns="http://www.w3.org/2000/svg">
<path d="M36.6407 43.8248C38.8214 41.5886 40.4912 39.0429 41.6504 36.1878C42.8094 33.3127 43.389 30.2778 43.389 27.0833C43.389 24.308 43.222 22.2914 42.8881 21.0335C42.3772 19.0969 41.67 18.1285 40.7663 18.1285C40.2555 18.1285 39.5384 19.0669 38.6151 20.9437C37.2988 23.6192 36.6407 26.6141 36.6407 29.9284V43.8248ZM33.1045 52.0907C32.2597 52.55 31.3953 52.9792 30.5113 53.3786C28.3306 54.3569 25.9535 54.9858 23.3799 55.2654V50.743C25.3248 50.4635 27.142 49.9544 28.8316 49.2156C30.0496 48.6766 31.1989 48.0576 32.2794 47.3588C32.2401 46.8996 32.2204 46.4204 32.2205 45.9212V18.3681C32.2204 14.8141 32.0142 12.1287 31.6016 10.3118C30.9729 7.51656 30.1969 6.11894 29.2736 6.1189C28.3306 6.11894 27.0242 7.9059 25.3543 11.4798C24.038 14.295 23.3799 17.2899 23.3799 20.4645V45.9512H18.9597V18.3681C18.9596 14.8341 18.7534 12.1487 18.3408 10.3118C17.7318 7.51656 16.9558 6.11894 16.0128 6.1189C15.0698 6.11894 13.7634 7.9059 12.0935 11.4798C10.7772 14.295 10.1191 17.2899 10.1191 20.4645V45.9512H5.69884V18.3681C5.69883 14.1952 5.1684 10.4915 4.10754 7.25697C3.49852 5.40016 2.4573 3.52335 0.983887 1.62654H5.52203C6.2882 2.40526 6.96599 3.36363 7.55536 4.50165C8.2233 5.81945 8.75374 7.29694 9.14665 8.93411C9.73601 7.15717 10.5218 5.61979 11.5041 4.32195C13.4883 1.72641 15.1091 0.428622 16.3664 0.428574C17.7612 0.428622 19.2445 1.78631 20.8162 4.50165C21.4252 5.53993 21.9556 7.01741 22.4075 8.93411C22.9968 7.15717 23.7826 5.61979 24.7649 4.32195C26.7491 1.72641 28.4681 0.428622 29.9219 0.428574C31.3167 0.428622 32.8 1.78631 34.3717 4.50165C35.2164 5.93924 35.7468 7.41674 35.963 8.93411C36.2576 11.0306 36.4541 13.4165 36.5523 16.0919C36.9452 15.2734 37.4364 14.5047 38.0258 13.7859C39.4599 12.0489 40.7172 11.1803 41.7977 11.1803C43.3693 11.1803 44.7347 12.7576 45.8938 15.9123C47.1707 19.3864 47.8092 23.11 47.8093 27.0833C47.8092 30.9767 47.1216 34.5805 45.7465 37.8949C44.2534 41.4888 42.2004 44.5835 39.5876 47.1791C38.7624 47.9977 37.898 48.7664 36.9944 49.4852C37.2104 50.4236 37.4953 51.332 37.8489 52.2105C38.6151 54.1073 39.8036 55.8943 41.4146 57.5714H35.6977C34.8137 56.1339 34.1653 54.9159 33.7528 53.9176C33.517 53.3187 33.3009 52.7097 33.1045 52.0907Z" fill="#094BB0"/>
</svg>
