<svg width="47" height="42" viewBox="0 0 47 42" fill="none" xmlns="http://www.w3.org/2000/svg">
<path d="M18.0913 27.9493H0.77832V23.3874H11.2086C10.4809 22.4548 9.87444 21.441 9.38933 20.3461C8.64141 18.6228 8.26746 16.798 8.26747 14.8719C8.26746 12.8849 8.64141 11.0298 9.38933 9.30637C10.1776 7.5222 11.2894 5.95089 12.7246 4.59243C14.1597 3.23403 15.797 2.17973 17.6365 1.42952C19.3951 0.719931 21.3153 0.365121 23.3974 0.365082C25.5804 0.365121 27.5007 0.719931 29.1583 1.42952C31.0785 2.26084 32.7158 3.31514 34.0702 4.59243C35.5053 5.95089 36.617 7.5222 37.4054 9.30637C38.1533 11.0298 38.5272 12.8849 38.5273 14.8719C38.5272 16.798 38.1533 18.6228 37.4054 20.3461C36.9202 21.441 36.3138 22.4548 35.5862 23.3874H46.0164V27.9493H28.6731V23.3874C29.4412 22.9616 30.1689 22.4446 30.8562 21.8363C31.8466 20.9645 32.6249 19.89 33.1909 18.6126C33.7164 17.4164 33.9792 16.1594 33.9792 14.8415C33.9792 13.5033 33.7164 12.2361 33.1909 11.0399C32.6451 9.84369 31.8668 8.76912 30.8562 7.81616C29.9061 6.94436 28.7641 6.2246 27.43 5.65687C26.2778 5.1703 24.9336 4.927 23.3974 4.92697C21.942 4.927 20.5978 5.1703 19.3647 5.65687C18.0913 6.16378 16.9492 6.88354 15.9385 7.81616C14.9278 8.76912 14.1496 9.84369 13.6039 11.0399C13.0783 12.2361 12.8155 13.5033 12.8155 14.8415C12.8155 16.1594 13.0783 17.4164 13.6039 18.6126C14.1496 19.8089 14.9278 20.8834 15.9385 21.8363C16.5651 22.4243 17.2827 22.9413 18.0913 23.3874V27.9493ZM0.77832 41.6349V37.073H46.0164V41.6349H0.77832Z" fill="#094BB0"/>
</svg>
