<svg width="48" height="59" viewBox="0 0 48 59" fill="none" xmlns="http://www.w3.org/2000/svg">
<path d="M39.8935 54.4447C38.3883 54.4447 37.1763 54.2353 36.2576 53.8163C35.2019 53.3375 34.3223 52.739 33.6186 52.0207C32.8366 51.2227 32.2502 50.3349 31.8592 49.3573C31.4683 48.3598 31.2728 47.2027 31.2728 45.8859V18.3541C31.2728 14.803 31.0675 12.1196 30.657 10.3041C30.0315 7.51102 29.2593 6.11448 28.3406 6.11445C27.4023 6.11448 26.1023 7.90006 24.4408 11.4712C23.131 14.2842 22.4762 17.2768 22.4762 20.4489V45.9159H18.0779V18.3541C18.0779 14.8229 17.8726 12.1396 17.4621 10.3041C16.8561 7.51102 16.084 6.11448 15.1457 6.11445C14.2073 6.11448 12.9074 7.90006 11.2458 11.4712C9.9361 14.2842 9.28124 17.2768 9.28125 20.4489V45.9159H4.88294V18.3541C4.88293 14.1845 4.35513 10.4837 3.29955 7.25163C2.69355 5.39626 1.65751 3.52091 0.191406 1.62556H4.70701C5.46937 2.40368 6.14378 3.36131 6.73023 4.49845C7.39485 5.81523 7.92265 7.29157 8.31362 8.92748C8.90005 7.15191 9.68197 5.61572 10.6594 4.31889C12.6337 1.72536 14.2464 0.428576 15.4975 0.428528C16.8854 0.428576 18.3613 1.78521 19.9252 4.49845C20.5311 5.53592 21.0589 7.01226 21.5086 8.92748C22.095 7.15191 22.8769 5.61572 23.8543 4.31889C25.8286 1.72536 27.5391 0.428576 28.9857 0.428528C30.3736 0.428576 31.8494 1.78521 33.4133 4.49845C34.2539 5.93493 34.7817 7.41128 34.9967 8.92748C35.3876 11.7006 35.5831 14.0847 35.5831 16.0798V45.9159C35.5831 46.674 35.6711 47.2426 35.847 47.6216C36.0816 48.1404 36.3553 48.5493 36.6681 48.8486C37.0199 49.1878 37.4109 49.4571 37.841 49.6566C38.271 49.8561 38.9356 49.9559 39.8349 49.9559H41.5355V46.0655L47.8105 52.2003L41.5355 58.365V54.4447H39.8935Z" fill="#094BB0"/>
</svg>
