<svg xmlns="http://www.w3.org/2000/svg" width="16" height="11" viewBox="0 0 16 11">
    <g fill="none" fill-rule="nonzero">
        <path fill="#73AF00" d="M15.724 10.991H.276A.283.283 0 0 1 0 10.702V8.101h16v2.601c0 .16-.124.289-.276.289z"/>
        <path fill="#FF4B55" d="M15.724.009H.276A.283.283 0 0 0 0 .298v7.803h16V.298a.283.283 0 0 0-.276-.289z"/>
        <path fill="#F5F5F5" d="M2.207 10.991H.276A.283.283 0 0 1 0 10.702V.298C0 .138.124.009.276.009h1.93v10.982z"/>
        <path fill="#FF4B55" d="M.276 10.511h.1v-.286h-.1v.286zm.779 0h.1v-.286h-.1v.286zm.779 0h.1v-.286h-.1v.286zM.666 9.743h.1v-.239h-.1v.239zm.779 0h.1v-.239h-.1v.239zM.276 9.12h.1v-.286h-.1v.286zm.779 0h.1v-.286h-.1v.286zm.779 0h.1v-.286h-.1v.286zm-1.362.384h.096v-.24h.098v-.24h.096v.24h.099v.24h.096v.239H.861v.24H.762v.241H.666v-.24H.568v-.241H.472v-.239zm.778 0h.098v-.24h.097v-.24h.097v.24h.097v.24h.098v.239h-.098v.24h-.097v.241h-.097v-.24h-.097v-.241H1.25v-.239zm.195-.959v.239h-.098v.24H1.25v.24h-.098v.24h-.097v-.24H.957v-.24H.861v-.24H.762v-.239H.666v.239H.568v.24H.472v.24H.374v.24H.276v.239h.098v.24h.098v.242h.096v.238h.098v.239h.097v-.239h.098v-.238h.096v-.241h.098v-.241h.097v.24h.098v.242h.098v.238h.097v.239h.097v-.239h.097v-.238h.098v-.241h.097v-.241h.097v-.239h-.097v-.24h-.097v-.24h-.098v-.24h-.097v-.239h-.097zm.241-.238h.049V8.21h.049v.096h.049v.095h-.05V8.5h-.048v-.098h-.049v-.095zm0-.335v.141h-.048v.146H1.59v.19h.05v.144h.047v.143h.147v-.143h.048V8.45h.049v-.191h-.048v-.146h-.05v-.14h-.146zm-1.312.332h.049V8.21h.049v.095h.047v.098H.472v.095h-.05v-.095H.375v-.098zm0-.334v.143H.325v.144H.276v.193h.049v.143h.049v.143h.145v-.143h.05V8.45h.047v-.193H.568v-.144H.52V7.97H.374zm.535.334h.048V8.21h.05v.095h.048v.098h-.048v.095h-.05v-.095H.91v-.098zm.243 0h.05V8.21h.048v.095h.048v.098H1.25v.095h-.049v-.095h-.049v-.098zm0-.334v.143h-.097V7.97H.909v.143H.861v.144H.81v.193h.05v.143h.048v.143h.146v-.143h.097v.143h.146v-.143h.05V8.45h.048v-.193h-.048v-.144h-.05V7.97h-.146zm-.876-.097h.1v-.287h-.1v.287zm.779 0h.1v-.287h-.1v.287zm.779 0h.1v-.287h-.1v.287zM.276 6.675h.1v-.191h-.1v.19zm1.558 0h.1v-.191h-.1v.19zm-.78-.67h.1v-.24h-.1v.24zm-.778-.648v.288h.1v-.288h-.1zm.535 0v.288h.1v-.288h-.1zm.487 0v.288h.1v-.288h-.1zm.536 0v.288h.1v-.288h-.1zM1.2 5.189v.095h-.049v.073h-.097v-.073h-.048V5.19H.909v.143h.048v.073h.05v.19h-.05v.073H.91v.143h.098v-.095h.048v-.07h.097v.07h.05v.095h.096v-.143H1.25v-.073h-.049v-.19h.05v-.073h.047v-.143h-.097zm-.146.047h.1v-.238h-.1v.238zm-.779-.718h.1v-.19h-.1v.19zm1.558 0h.1v-.19h-.1v.19zM.276 3.416h.1v-.289h-.1v.289zm.779 0h.1v-.289h-.1v.289zm.779 0h.1v-.289h-.1v.289zM.666 5.504v-.099h.096v-.167h.099v-.193h.146V4.82h.048v-.11h.097v.108h.05v.228h.146v.193h.097v.167h.097v.19h-.097v.17h-.097v.192H1.2v.226h-.049v.108h-.098v-.108h-.047v-.226H.86v-.191H.762v-.17H.666v-.092zm.779-2.665v.24h-.098v.24H1.25v.24h-.098v.239h-.097v-.239H.957v-.24H.861v-.24H.762v-.24H.666v.24H.568v.24H.471v.24H.374v.239H.276v.24h.098v.241H.47v.24h.097v.238h.098v-.239h.096V4.28h.099v-.24H.762V3.75h.099v.193h.096v.384h.05v.237l-.146.002v.19H.762V4.9H.666v.24H.568V4.9H.471v-.143H.374v-.143H.276v.431h.098v.193H.47v.166h.097v.191H.471v.17H.374v.192H.276v.431h.098v-.145H.47V6.1h.097V5.86h.098V6.1h.096v.143h.099v.193l.146.002v.237h-.05v.384H.861v.193H.762v-.29h.099v-.24H.762v-.238H.666v-.24H.568v.24H.471v.239H.374v.238H.276v.241h.098v.239h.098v.24h.096v.241h.098v.24h.096v-.24h.099v-.24h.096V7.44h.098v-.239h.097v.239h.098v.24h.098v.241h.097v.24h.097v-.24h.097v-.24h.098V7.44h.097v-.239h.097v-.24h-.097v-.24h-.097v-.238h-.098v-.24h-.097v.24h-.097v.239h-.098v.238h.098v.291h-.098v-.193H1.25v-.384H1.201v-.239H1.348v-.193h.097V6.1h.097V5.86h.097V6.1h.098v.143h.097v.145h.097v-.431h-.097v-.191h-.097v-.17h-.098v-.191h.098v-.167h.097v-.193h.097v-.431h-.097v.143h-.097V4.9h-.098v.24h-.097V4.9h-.097v-.143h-.097v-.191h-.147v-.239h.049v-.384h.097V3.75h.098v.288h-.098v.241h.098v.24h.097v.238h.097v-.239h.098V4.28h.097v-.24h.097v-.241h-.097v-.239h-.097v-.24h-.098v-.24h-.097v-.24h-.097zM.374 2.6h.048v-.095h.05V2.6h.047v.096H.472v.097h-.05v-.097H.374V2.6zm0-.193H.325v.145H.276v.191h.049v.146h.049v.143h.145v-.143h.05v-.146h.047v-.19H.568v-.146H.52v-.141H.374v.141zm.535.193h.048v-.095h.05V2.6h.048v.096h-.048v.097h-.05v-.097H.91V2.6zm.243 0h.05v-.095h.048V2.6h.048v.096H1.25v.097h-.049v-.097h-.049V2.6zM.91 2.407H.861v.145H.81v.191h.05v.146h.048v.143h.146v-.143h.097v.143h.146v-.143h.05v-.146h.048v-.19h-.048v-.146h-.05v-.141h-.146v.141h-.097v-.141H.909v.141zm.777.191h.049v-.093h.049v.093h.049v.098h-.05v.095h-.048v-.095h-.049v-.098zm0-.334v.143h-.048v.145H1.59v.191h.05v.144h.047v.143h.147v-.143h.048v-.144h.049v-.19h-.048v-.146h-.05v-.143h-.146zm-1.41-.096h.1v-.286h-.1v.286zm.779 0h.1v-.286h-.1v.286zm.779 0h.1v-.286h-.1v.286zm-1.168-.67h.1v-.241h-.1v.24zm.779 0h.1v-.241h-.1v.24zM.276.778h.1V.49h-.1v.287zm.779 0h.1V.49h-.1v.287zm.779 0h.1V.49h-.1v.287zm-1.362.48h.096v-.24h.098v-.24h.096v.24h.099v.24h.096v.24H.861v.239H.762v.24H.666v-.24H.568v-.24H.472v-.24zm.778 0h.098v-.24h.097v-.24h.097v.24h.097v.24h.098v.24h-.098v.239h-.097v.24h-.097v-.24h-.097v-.24H1.25v-.24zm.195-.96v.24h-.097v.24H1.25v.24h-.098v.24h-.097v-.24H.957v-.24H.861v-.24H.763v-.24H.666v.24H.568v.24H.472v.24H.374v.24H.276v.24h.098v.239h.098v.24h.096v.241h.098v.239h.096v-.239h.099v-.24h.096v-.241h.098v-.239h.097v.239h.098v.24h.097v.241h.098v.239h.097v-.239h.097v-.24h.098v-.241h.097v-.239h.097v-.24h-.097v-.24h-.097v-.24h-.098v-.24h-.097v-.24h-.097z"/>
    </g>
</svg>
