<svg xmlns="http://www.w3.org/2000/svg" width="24" height="24" viewBox="0 0 24 24">
    <g fill="none" fill-rule="evenodd">
        <path fill="#0273ED" d="M0 0h24v24H0z"/>
        <path fill="#FFF" fill-rule="nonzero" d="M13.542 10.458c.19.19.288.451.271.718a.933.933 0 0 1-.27.593.957.957 0 0 1-1.312 0 1.4 1.4 0 0 0-1.979 0l-2.98 2.977a1.4 1.4 0 1 0 1.982 1.981l1.761-1.764a.233.233 0 0 1 .255-.051c.474.193.981.291 1.493.29h.093a.233.233 0 0 1 .166.398l-2.45 2.45a3.267 3.267 0 0 1-4.618-4.622l2.968-2.97a3.267 3.267 0 0 1 4.62 0zm4.501-4.501a3.267 3.267 0 0 1 0 4.62l-2.97 2.97a3.266 3.266 0 0 1-1.514.859h-.026l-.135.028-.075.014-.161.023h-.08c-.06 0-.114.012-.165.014l-.14.016H12.6a3.248 3.248 0 0 1-.348-.032 3.783 3.783 0 0 1-.282-.059l-.138-.037c-.049-.014-.1-.03-.15-.05-.048-.018-.1-.034-.149-.055-.049-.021-.098-.04-.147-.063a3.239 3.239 0 0 1-.933-.653.933.933 0 0 1 0-1.316.957.957 0 0 1 1.311 0 1.4 1.4 0 0 0 1.979 0l.765-.761.019-.021 2.189-2.186a1.4 1.4 0 1 0-1.981-1.981L12.978 9.04a.233.233 0 0 1-.255.052 3.92 3.92 0 0 0-1.49-.292h-.087a.233.233 0 1 1-.17-.399l2.447-2.445a3.267 3.267 0 0 1 4.62 0z"/>
    </g>
</svg>
