<svg xmlns="http://www.w3.org/2000/svg" width="24" height="24" viewBox="0 0 24 24">
    <g fill="none" fill-rule="evenodd">
        <path fill="#0273ED" d="M0 0h24v24H0z"/>
        <path fill="#FFF" fill-rule="nonzero" d="M16.722 10h-.833V8.889A3.893 3.893 0 0 0 12 5a3.893 3.893 0 0 0-3.889 3.889V10h-.833a.278.278 0 0 0-.278.278v6.944c0 .613.498 1.111 1.111 1.111h7.778c.613 0 1.111-.498 1.111-1.11v-6.945a.278.278 0 0 0-.278-.278zm-3.89 5.803a.278.278 0 0 1-.276.308h-1.112a.278.278 0 0 1-.276-.308l.176-1.576a1.099 1.099 0 0 1-.455-.894 1.112 1.112 0 0 1 2.222 0c0 .36-.17.687-.454.894l.175 1.576zM14.222 10H9.778V8.889c0-1.225.997-2.222 2.222-2.222s2.222.997 2.222 2.222V10z"/>
    </g>
</svg>
