<svg xmlns="http://www.w3.org/2000/svg" xmlns:xlink="http://www.w3.org/1999/xlink" width="121" height="35" viewBox="0 0 121 35"><defs><path id="di6fa" d="M429 78h4.575v13.217H441V95h-12zm-14 11h5l-2.474-6zm7.268 6l-1.165-3.007h-7.352L412.561 95H408l7.304-17h4.562L427 95zM397 87h3.192c.896 0 1.588-.217 2.076-.651.488-.434.732-1.062.732-1.884 0-.79-.244-1.4-.732-1.825-.488-.427-1.18-.64-2.076-.64H397zm5.726 8l-2.599-4.705h-3.465V95H392V78h8.025c2.361 0 4.192.521 5.49 1.564 1.3 1.043 1.95 2.51 1.95 4.402 0 1.277-.272 2.38-.815 3.31-.544.93-1.334 1.653-2.37 2.17L408 95zm-25.122-7.19c0 1.047.327 1.888.98 2.523.655.635 1.485.953 2.491.953.99 0 1.79-.314 2.403-.94.612-.628.918-1.473.918-2.536V78H389v9.81c0 1.444-.323 2.71-.969 3.797-.645 1.087-1.568 1.925-2.767 2.512-1.199.587-2.604.881-4.214.881-1.61 0-3.023-.294-4.239-.881-1.216-.587-2.155-1.425-2.817-2.512-.663-1.087-.994-2.353-.994-3.797V78h4.604zM357 78h15v3.662h-5.241V95h-4.568V81.662H357zm-12 11h5l-2.474-6zm7.268 6l-1.165-3.007h-7.352L342.561 95H338l7.304-17h4.562L357 95zm-20.46-17H336v17h-3.945l-7.84-10.161V95H320V78h3.97l7.864 10.234zm55.553-18H389l-3.885 11h-1.64l-2.967-9.083L377.492 71h-1.623L372 60h1.689l3.032 9.381L379.738 60h1.573l3.033 9.381zM363 60h7.807v1.367h-6.265v3.394h5.607v1.368h-5.607v3.504H371V71h-8zm-4.602 0H360v11h-1.636l-6.745-8.517V71H350V60h1.636l6.762 8.533zM344 60l-4.199 7.229V71h-1.538v-3.709L334 60h1.57l3.462 5.61L342.43 60zm-24 0h1.851l4.157 7.731L330.133 60H332v11h-1.461l-.017-8.784-4.043 7.621h-.958l-4.076-7.621V71H320z"/></defs><g><g transform="translate(-320 -60)"><use xlink:href="#di6fa"/></g></g></svg>