<svg xmlns="http://www.w3.org/2000/svg" xmlns:xlink="http://www.w3.org/1999/xlink" width="147" height="106" viewBox="0 0 147 106"><defs><path id="h3s8a" d="M1033.4 347.5v72.8c0 9.1-7.4 16.5-16.5 16.5H903.6c-3.7 0-7.2-1.3-10-3.3-4-3-6.5-7.8-6.5-13.1v-72.8c0-9.1 7.4-16.5 16.5-16.5h113.3c4.5 0 8.5 1.8 11.5 4.7 3.1 2.9 5 7.1 5 11.7z"/><path id="h3s8b" d="M1014.097 377.603l-20.2 4.2c-.3.1-.5.2-.6.5l-2.2 4.4c-.5.9-1.9.5-1.7-.5l.6-4.9c0-.3-.1-.6-.3-.8l-14.6-14.6c-3.5-3.5-9.4-2-10.8 2.7l-6 20c-.9 3.1 1 6.1 3.8 6.9.7.2.9 1.1.4 1.6l-6.4 6c-.6.5-.3 1.5.5 1.6l6.4 1.1c.4.1.7.4.8.9l.3 5.7c0 .8 1 1.2 1.5.6l19.2-17.5c.5-.5 1.4-.2 1.5.5l7.4 31.9c.2.8 1.1 1 1.6.4l3.9-4.9c.3-.4.8-.5 1.2-.2l5.3 3.6c.7.5 1.6-.1 1.4-.9l-3.2-17.5c-.2-.9.9-1.4 1.5-.8 3.5 3.2 9.2 1.6 10.5-2.9l5.6-18.6c1.5-5-2.6-9.5-7.4-8.5z"/><path id="h3s8c" d="M1033.4 371.7v12h-36l.2 41.4v11.6h-12v-.4l-.2-41.3v-11.3h-98.3v-12h98.2l-.2-40.7h12l.2 40.7z"/><path id="h3s8d" d="M1021.9 383.7c-.1-3.9-3.7-7-7.8-6.2l-20.2 4.2c-.3.1-.5.2-.6.5l-2.2 4.4c-.5.9-1.9.5-1.7-.5l.6-4.9c0-.3-.1-.6-.3-.8l-8.7-8.7h-17.6l-3.6 12h25.8V395c.4.1.7.3.8.7l7.4 31.9c.2.8 1.1 1 1.6.4l2.3-2.9-.2-41.4z"/><path id="h3s8e" d="M970.3 383.9l-14.7 13.8 9 1.5.4 8.4 21.8-19.9 8.2 35.4 5.7-7.2 7.8 5.3-5.8-31.6"/><path id="h3s8f" d="M900.1 399.1h42.2"/><path id="h3s8g" d="M942.3 401.1h-42.2c-1.1 0-2-.9-2-2s.9-2 2-2h42.2c1.1 0 2 .9 2 2s-.9 2-2 2z"/><path id="h3s8h" d="M921.1 409.2h21.2"/><path id="h3s8i" d="M942.3 411.2h-21.2c-1.1 0-2-.9-2-2s.9-2 2-2h21.2c1.1 0 2 .9 2 2s-.9 2-2 2z"/><path id="h3s8j" d="M900.1 409.2h14.5"/><path id="h3s8k" d="M914.6 411.2h-14.5c-1.1 0-2-.9-2-2s.9-2 2-2h14.5c1.1 0 2 .9 2 2s-.9 2-2 2z"/><path id="h3s8l" d="M933.2 419.9h9.1"/><path id="h3s8m" d="M942.3 421.9h-9c-1.1 0-2-.9-2-2s.9-2 2-2h9c1.1 0 2 .9 2 2s-.9 2-2 2z"/><path id="h3s8n" d="M900.1 419.9H926"/><path id="h3s8o" d="M926 421.9h-25.8c-1.1 0-2-.9-2-2s.9-2 2-2H926c1.1 0 2 .9 2 2s-.9 2-2 2z"/><path id="h3s8p" d="M983.804 367.095l7.1 7.1-1.6 13-5.5-1.1-18.4 2.8c-4 .6-7.3-3.2-6.2-7.1l6.4-21.4c1.2-4 6.3-5.3 9.2-2.3l.4.4"/><path id="h3s8q" d="M988.5 387l5.2 2.2 13.8 12.5c3 2.7 7.9 1.4 9-2.5l6.4-21.4c1.2-4-2.3-7.9-6.4-7l-22.2 4.6-5.8 11.6z"/><path id="h3s8r" d="M983.9 375.7c1.8-4.4 6.2-6.6 10-5.5 4.3 1.3 6.5 6.8 4.8 12.3-1.7 5.5-6.5 8.9-10.8 7.6-3-.9-5.2-3.8-5.3-7.4-.2-2.7.2-4.3 1.3-7z"/></defs><g><g transform="translate(-887 -331)"><g><use fill="#1a5b86" xlink:href="#h3s8a"/></g><g><use fill="#195176" xlink:href="#h3s8b"/></g><g><use fill="#fdf2df" xlink:href="#h3s8c"/></g><g><use fill="#d6be94" xlink:href="#h3s8d"/></g><g><use fill="#ffe7bd" xlink:href="#h3s8e"/></g><g><g><use fill="#2767f4" xlink:href="#h3s8f"/></g><g><use fill="#46667b" xlink:href="#h3s8g"/></g></g><g><g><use fill="#2767f4" xlink:href="#h3s8h"/></g><g><use fill="#46667b" xlink:href="#h3s8i"/></g></g><g><g><use fill="#2767f4" xlink:href="#h3s8j"/></g><g><use fill="#46667b" xlink:href="#h3s8k"/></g></g><g><g><use fill="#2767f4" xlink:href="#h3s8l"/></g><g><use fill="#46667b" xlink:href="#h3s8m"/></g></g><g><g><use fill="#2767f4" xlink:href="#h3s8n"/></g><g><use fill="#46667b" xlink:href="#h3s8o"/></g></g><g><use fill="#ffc767" xlink:href="#h3s8p"/></g><g><use fill="#ffc767" xlink:href="#h3s8q"/></g><g><use fill="#ffe7bd" xlink:href="#h3s8r"/></g></g></g></svg>