<svg width="14" height="12" viewBox="0 0 14 12" fill="none" xmlns="http://www.w3.org/2000/svg">
<path fill-rule="evenodd" clip-rule="evenodd" d="M9.92699 5.45856H4.07145C3.80189 5.45856 3.58375 5.67729 3.58375 5.94757C3.58375 6.21785 3.80189 6.43658 4.07145 6.43658H9.92855C10.1981 6.43658 10.4162 6.21785 10.4162 5.94757C10.4147 5.67729 10.1966 5.45856 9.92699 5.45856ZM9.92699 8.10684H4.07145C3.80189 8.10684 3.58375 8.32556 3.58375 8.59585C3.58375 8.86613 3.80189 9.08485 4.07145 9.08485H9.92855C10.1981 9.08485 10.4162 8.86613 10.4162 8.59585C10.4147 8.32556 10.1966 8.10684 9.92699 8.10684ZM12.8766 0.874902H11.0753V0.489007C11.0753 0.218725 10.8572 0 10.5876 0C10.3181 0 10.0999 0.218725 10.0999 0.489007V0.874902H3.8985V0.489007C3.8985 0.218725 3.68036 0 3.4108 0C3.14124 0 2.92309 0.218725 2.92309 0.489007V0.874902H1.12187C0.501725 0.874902 0 1.37797 0 1.99978V10.8738C0 11.4956 0.501725 11.9987 1.12187 11.9987H12.8781C13.4983 11.9987 14 11.4956 14 10.8738V1.99978C13.9984 1.37953 13.4967 0.874902 12.8766 0.874902ZM1.12187 1.99981H2.92465V2.25291C2.92465 2.52319 3.14279 2.74192 3.41235 2.74192C3.68191 2.74192 3.90006 2.52319 3.90006 2.25291V1.99981H10.1015V2.25291C10.1015 2.52319 10.3196 2.74192 10.5892 2.74192C10.8588 2.74192 11.0769 2.52319 11.0769 2.25291V1.99981H12.8797V3.53246H1.12187V1.99981ZM12.8766 10.8737H1.12187V4.50563H12.8781V10.8737C12.8766 10.8737 12.8766 10.8737 12.8766 10.8737Z" fill="white"/>
</svg>
