<svg width="250" height="429" viewBox="0 0 250 429" fill="none" xmlns="http://www.w3.org/2000/svg">
<g opacity="0.5">
<path d="M314.466 243.052L314.466 242.659L299.01 141.486L298.819 141.486L142.71 158.829L143.344 159.133L314.466 243.052ZM298.617 141.891L313.946 242.291L144.105 159.057L298.617 141.891Z" fill="#E5E5E5"/>
<path d="M81.5573 265.83L82.2166 265.45L299.758 141.397L298.769 141.498L143.255 158.766L143.255 158.867L81.5573 265.83ZM297.818 142.018L82.6731 264.778L143.534 159.222L297.818 142.018Z" fill="#E5E5E5"/>
<path d="M409.587 324.981L408.915 323.879L298.934 141.562L209.582 55.1604L209.455 55.3757L143.293 158.728L1.37258 119.379L1.61348 119.809L81.963 265.374L82.3181 265.171L2.1841 120.037L143.471 159.209L143.547 159.07L209.658 55.8065L298.617 141.891L407.901 323.055L314.162 242.443L244.691 359.364L245.16 359.262L408.725 324.271L409.587 324.981ZM314.263 243.001L408.294 323.866L245.528 358.705L314.263 243.001Z" fill="#E5E5E5"/>
<path d="M510.071 406.948L509.602 406.555L409.016 323.942L498.787 193.314L244.919 358.882L167.676 411.939L168.158 412.041L242.015 426.939L242.015 426.711L245.299 359.161L497.278 194.796L408.522 324.018L408.611 324.107L432.08 404.135L432.232 404.135L510.071 406.948ZM409.13 324.601L508.867 406.517L432.397 403.755L409.13 324.601ZM244.894 359.44L241.635 426.433L168.741 411.737L244.894 359.44Z" fill="#E5E5E5"/>
<path d="M209.594 55.7431L209.746 55.6418L269.822 11.1869L269.276 11.1869L160.614 1.62194L209.594 55.7431ZM268.706 11.491L209.645 55.211L161.615 2.07802L268.706 11.491Z" fill="#E5E5E5"/>
<path d="M141.658 159.627C141.537 159.287 141.521 158.918 141.61 158.568C141.699 158.218 141.891 157.902 142.16 157.661C142.429 157.42 142.764 157.264 143.122 157.213C143.48 157.162 143.845 157.218 144.17 157.375C144.496 157.531 144.768 157.781 144.952 158.092C145.136 158.403 145.223 158.762 145.202 159.123C145.181 159.483 145.054 159.83 144.836 160.118C144.618 160.407 144.32 160.624 143.978 160.742C143.753 160.822 143.513 160.857 143.274 160.844C143.035 160.831 142.801 160.771 142.586 160.668C142.37 160.564 142.177 160.419 142.018 160.24C141.858 160.062 141.736 159.853 141.658 159.627Z" fill="#E5E5E5"/>
<path d="M80.3274 265.678C80.2441 265.452 80.2063 265.211 80.2161 264.97C80.2258 264.73 80.2829 264.493 80.3842 264.274C80.4854 264.055 80.6288 263.859 80.8062 263.695C80.9835 263.532 81.1914 263.405 81.4179 263.322C81.8752 263.154 82.3805 263.174 82.8228 263.378C83.2651 263.583 83.608 263.954 83.7762 264.411C83.9443 264.868 83.9239 265.373 83.7194 265.815C83.5149 266.257 83.1431 266.6 82.6858 266.768C82.2285 266.936 81.7231 266.915 81.2808 266.711C80.8385 266.506 80.4956 266.135 80.3274 265.678Z" fill="#E5E5E5"/>
<path d="M0.104634 120.354C-0.0159712 120.013 -0.0326338 119.645 0.0567217 119.295C0.146077 118.945 0.337484 118.629 0.606588 118.388C0.875692 118.146 1.21044 117.99 1.56838 117.94C1.92632 117.889 2.29131 117.945 2.61715 118.101C2.94298 118.258 3.21505 118.508 3.3987 118.819C3.58236 119.13 3.66942 119.489 3.64882 119.849C3.62822 120.21 3.50084 120.557 3.28298 120.845C3.06511 121.133 2.76656 121.35 2.42501 121.469C2.19945 121.549 1.96022 121.584 1.72121 121.571C1.4822 121.558 1.24807 121.498 1.03237 121.394C0.81667 121.291 0.623677 121.145 0.464436 120.967C0.305196 120.788 0.182881 120.58 0.104634 120.354Z" fill="#E5E5E5"/>
<path d="M208.909 192.566C208.751 192.108 208.781 191.605 208.993 191.168C209.204 190.732 209.58 190.396 210.038 190.235C210.379 190.118 210.747 190.104 211.096 190.196C211.444 190.288 211.758 190.48 211.998 190.75C212.237 191.019 212.391 191.353 212.44 191.71C212.49 192.067 212.432 192.43 212.275 192.755C212.118 193.079 211.869 193.35 211.558 193.532C211.247 193.715 210.89 193.802 210.53 193.782C210.17 193.762 209.824 193.636 209.535 193.419C209.247 193.203 209.029 192.906 208.909 192.566Z" fill="#E5E5E5"/>
<path d="M207.908 56.0472C207.787 55.7066 207.771 55.3379 207.86 54.9879C207.949 54.6378 208.141 54.3221 208.41 54.0809C208.679 53.8396 209.014 53.6836 209.372 53.6326C209.73 53.5817 210.095 53.638 210.42 53.7946C210.746 53.9512 211.018 54.2009 211.202 54.5121C211.386 54.8232 211.473 55.1819 211.452 55.5426C211.431 55.9033 211.304 56.2497 211.086 56.538C210.868 56.8263 210.57 57.0435 210.228 57.162C210.003 57.2421 209.764 57.2767 209.525 57.2639C209.285 57.2511 209.051 57.1912 208.836 57.0875C208.62 56.9839 208.427 56.8386 208.268 56.66C208.108 56.4815 207.986 56.2732 207.908 56.0472Z" fill="#E5E5E5"/>
<path d="M159.396 2.43275C159.276 2.09217 159.259 1.72349 159.348 1.37343C159.438 1.02338 159.629 0.70771 159.898 0.466443C160.167 0.225177 160.502 0.0691755 160.86 0.0182136C161.218 -0.0327483 161.583 0.0236238 161.909 0.180184C162.235 0.336745 162.507 0.586445 162.69 0.897632C162.874 1.20882 162.961 1.56748 162.941 1.92816C162.92 2.28883 162.793 2.63528 162.575 2.92359C162.357 3.21189 162.058 3.42908 161.717 3.5476C161.261 3.70231 160.762 3.67221 160.329 3.46375C159.895 3.25529 159.56 2.88511 159.396 2.43275Z" fill="#E5E5E5"/>
<path d="M267.92 11.5923C267.787 11.2515 267.76 10.8788 267.842 10.5225C267.924 10.1662 268.111 9.84268 268.379 9.59398C268.648 9.34529 268.985 9.18285 269.346 9.12776C269.708 9.07266 270.078 9.12744 270.408 9.28499C270.738 9.44255 271.014 9.6956 271.198 10.0113C271.383 10.3271 271.468 10.6909 271.443 11.0557C271.418 11.4205 271.284 11.7693 271.058 12.057C270.832 12.3447 270.525 12.558 270.177 12.6692C269.734 12.8103 269.254 12.7776 268.835 12.5775C268.415 12.3774 268.088 12.0251 267.92 11.5923Z" fill="#E5E5E5"/>
<path d="M402.372 111.917L402.436 111.651L421.353 42.4662L421.024 42.4662L317.243 60.2025L317.712 60.4939L402.372 111.917ZM420.783 42.9856L402.119 111.271L318.434 60.4433L420.783 42.9856Z" fill="#E5E5E5"/>
<path d="M316.748 61.1907C316.628 60.8501 316.611 60.4815 316.7 60.1314C316.79 59.7813 316.981 59.4657 317.25 59.2244C317.519 58.9831 317.854 58.8271 318.212 58.7762C318.57 58.7252 318.935 58.7816 319.261 58.9382C319.587 59.0947 319.859 59.3444 320.042 59.6556C320.226 59.9668 320.313 60.3254 320.292 60.6861C320.272 61.0468 320.144 61.3932 319.927 61.6816C319.709 61.9699 319.41 62.187 319.068 62.3056C318.843 62.3856 318.604 62.4202 318.365 62.4075C318.126 62.3947 317.892 62.3347 317.676 62.2311C317.46 62.1274 317.267 61.9821 317.108 61.8036C316.949 61.625 316.826 61.4167 316.748 61.1907Z" fill="#E5E5E5"/>
<path d="M401.371 111.486C401.212 111.029 401.24 110.528 401.449 110.091C401.658 109.655 402.031 109.318 402.486 109.155C402.827 109.035 403.195 109.019 403.545 109.109C403.894 109.198 404.21 109.389 404.451 109.658C404.692 109.926 404.848 110.26 404.899 110.617C404.95 110.974 404.894 111.338 404.739 111.663C404.583 111.988 404.334 112.26 404.024 112.445C403.714 112.629 403.356 112.717 402.995 112.698C402.635 112.679 402.288 112.554 401.999 112.338C401.71 112.122 401.491 111.826 401.371 111.486Z" fill="#E5E5E5"/>
<path d="M418.894 43.4924C418.773 43.1518 418.756 42.7831 418.846 42.4331C418.935 42.083 419.126 41.7674 419.396 41.5261C419.665 41.2848 419.999 41.1288 420.357 41.0779C420.715 41.0269 421.08 41.0833 421.406 41.2398C421.732 41.3964 422.004 41.6461 422.188 41.9573C422.371 42.2685 422.458 42.6271 422.438 42.9878C422.417 43.3485 422.29 43.6949 422.072 43.9832C421.854 44.2715 421.556 44.4887 421.214 44.6072C420.758 44.7654 420.258 44.7369 419.824 44.528C419.389 44.3191 419.055 43.9468 418.894 43.4924Z" fill="#E5E5E5"/>
<path d="M297.07 142.309C296.949 141.969 296.932 141.6 297.022 141.25C297.111 140.9 297.302 140.584 297.572 140.343C297.841 140.102 298.175 139.946 298.533 139.895C298.891 139.844 299.256 139.9 299.582 140.057C299.908 140.213 300.18 140.463 300.364 140.774C300.547 141.085 300.634 141.444 300.614 141.805C300.593 142.165 300.466 142.512 300.248 142.8C300.03 143.088 299.732 143.305 299.39 143.424C299.164 143.504 298.925 143.539 298.686 143.526C298.447 143.513 298.213 143.453 297.997 143.349C297.782 143.246 297.589 143.101 297.429 142.922C297.27 142.743 297.148 142.535 297.07 142.309Z" fill="#E5E5E5"/>
<path d="M312.513 243.368C312.412 243.138 312.36 242.89 312.36 242.638C312.359 242.387 312.411 242.139 312.511 241.908C312.611 241.678 312.758 241.471 312.942 241.3C313.127 241.128 313.344 240.997 313.581 240.914C313.819 240.831 314.071 240.798 314.321 240.817C314.572 240.835 314.816 240.906 315.039 241.023C315.261 241.14 315.457 241.302 315.613 241.499C315.77 241.695 315.884 241.922 315.949 242.165C316.068 242.609 316.015 243.082 315.8 243.488C315.585 243.895 315.224 244.205 314.789 244.357C314.355 244.51 313.879 244.492 313.457 244.309C313.035 244.125 312.698 243.789 312.513 243.368Z" fill="#E5E5E5"/>
<path d="M406.683 324.664C406.564 324.324 406.548 323.956 406.637 323.607C406.727 323.257 406.918 322.942 407.187 322.702C407.455 322.461 407.789 322.305 408.147 322.254C408.504 322.202 408.868 322.258 409.194 322.414C409.519 322.569 409.791 322.818 409.976 323.128C410.16 323.438 410.248 323.795 410.229 324.155C410.21 324.516 410.085 324.862 409.869 325.151C409.653 325.44 409.356 325.658 409.016 325.779C408.79 325.859 408.55 325.894 408.31 325.881C408.07 325.869 407.835 325.809 407.618 325.705C407.401 325.602 407.207 325.456 407.047 325.278C406.887 325.099 406.763 324.89 406.683 324.664Z" fill="#E5E5E5"/>
<path d="M243.841 359.072C243.721 358.732 243.704 358.363 243.793 358.013C243.883 357.663 244.074 357.347 244.343 357.106C244.612 356.865 244.947 356.709 245.305 356.658C245.663 356.607 246.028 356.663 246.354 356.82C246.68 356.976 246.952 357.226 247.135 357.537C247.319 357.849 247.406 358.207 247.386 358.568C247.365 358.929 247.238 359.275 247.02 359.563C246.802 359.852 246.503 360.069 246.162 360.187C245.936 360.267 245.697 360.302 245.458 360.289C245.219 360.276 244.985 360.216 244.769 360.113C244.553 360.009 244.36 359.864 244.201 359.685C244.042 359.507 243.92 359.298 243.841 359.072Z" fill="#E5E5E5"/>
<path d="M166.586 412.129C166.505 411.904 166.471 411.665 166.484 411.426C166.496 411.188 166.556 410.954 166.66 410.738C166.764 410.522 166.909 410.33 167.088 410.171C167.267 410.011 167.475 409.889 167.701 409.811C168.157 409.643 168.661 409.663 169.102 409.866C169.543 410.069 169.885 410.439 170.053 410.894C170.221 411.35 170.202 411.853 169.998 412.294C169.795 412.734 169.425 413.076 168.969 413.244C168.74 413.334 168.495 413.377 168.249 413.369C168.003 413.361 167.761 413.303 167.538 413.199C167.314 413.095 167.115 412.946 166.951 412.762C166.788 412.578 166.663 412.363 166.586 412.129Z" fill="#E5E5E5"/>
<path d="M240.621 426.939C240.542 426.713 240.508 426.473 240.522 426.234C240.535 425.995 240.596 425.761 240.7 425.545C240.804 425.329 240.95 425.136 241.129 424.976C241.308 424.816 241.516 424.694 241.743 424.615C241.969 424.536 242.209 424.502 242.449 424.515C242.688 424.529 242.923 424.59 243.139 424.694C243.355 424.798 243.548 424.943 243.708 425.122C243.868 425.301 243.99 425.509 244.07 425.736C244.229 426.193 244.201 426.694 243.99 427.13C243.78 427.566 243.405 427.901 242.948 428.06C242.49 428.22 241.988 428.192 241.552 427.981C241.115 427.771 240.781 427.396 240.621 426.939Z" fill="#E5E5E5"/>
<path d="M430.521 404.515C430.4 404.175 430.383 403.806 430.473 403.456C430.562 403.106 430.753 402.79 431.023 402.549C431.292 402.308 431.626 402.152 431.984 402.101C432.342 402.05 432.707 402.106 433.033 402.263C433.359 402.42 433.631 402.669 433.815 402.98C433.998 403.292 434.085 403.65 434.065 404.011C434.044 404.372 433.917 404.718 433.699 405.006C433.481 405.295 433.183 405.512 432.841 405.63C432.615 405.71 432.376 405.745 432.137 405.732C431.898 405.719 431.664 405.66 431.448 405.556C431.233 405.452 431.04 405.307 430.88 405.128C430.721 404.95 430.599 404.742 430.521 404.515Z" fill="#E5E5E5"/>
<path d="M507.675 407.341C507.554 407 507.538 406.631 507.627 406.281C507.716 405.931 507.908 405.616 508.177 405.374C508.446 405.133 508.781 404.977 509.139 404.926C509.497 404.875 509.862 404.932 510.188 405.088C510.513 405.245 510.785 405.494 510.969 405.806C511.153 406.117 511.24 406.475 511.219 406.836C511.199 407.197 511.071 407.543 510.853 407.832C510.636 408.12 510.337 408.337 509.995 408.456C509.77 408.536 509.531 408.57 509.292 408.557C509.053 408.545 508.818 408.485 508.603 408.381C508.387 408.277 508.194 408.132 508.035 407.954C507.876 407.775 507.753 407.567 507.675 407.341Z" fill="#E5E5E5"/>
</g>
</svg>
