<svg width="409" height="429" viewBox="0 0 409 429" fill="none" xmlns="http://www.w3.org/2000/svg">
<g opacity="0.5">
<path d="M93.7563 185.111V185.504L109.213 286.677H109.403L265.512 269.333L264.878 269.029L93.7563 185.111ZM109.606 286.272L94.2762 185.871L264.117 269.105L109.606 286.272Z" fill="#E5E5E5"/>
<path d="M326.665 162.333L326.006 162.713L108.464 286.766L109.453 286.664L264.967 269.397V269.295L326.665 162.333ZM110.404 286.145L325.549 163.384L264.688 268.941L110.404 286.145Z" fill="#E5E5E5"/>
<path d="M-1.36478 103.182L-0.69278 104.284L109.289 286.601L198.641 373.002L198.767 372.787L264.929 269.435L406.85 308.784L406.609 308.353L326.259 162.789L325.904 162.991L406.038 308.125L264.751 268.953L264.675 269.093L198.564 372.356L109.606 286.272L0.321564 105.108L94.0606 185.719L163.531 68.7987L163.062 68.9001L-0.502594 103.891L-1.36478 103.182ZM93.9592 185.162L-0.0715027 104.297L162.694 69.4575L93.9592 185.162Z" fill="#E5E5E5"/>
<path d="M-101.849 21.2147L-101.38 21.6074L-0.79422 104.221L-90.5646 234.849L163.303 69.2802L240.546 16.2232L240.064 16.1219L166.207 1.2233V1.45132L162.923 69.0015L-89.0557 233.367L-0.299713 104.145L-0.388458 104.056L-23.8581 24.0272H-24.0102L-101.849 21.2147ZM-0.908295 103.562L-100.645 21.6454L-24.1751 24.4072L-0.908295 103.562ZM163.328 68.7227L166.587 1.73004L239.481 16.4259L163.328 68.7227Z" fill="#E5E5E5"/>
<path d="M198.628 372.419L198.476 372.521L138.401 416.976H138.946L247.609 426.541L198.628 372.419ZM139.516 416.672L198.577 372.952L246.607 426.085L139.516 416.672Z" fill="#E5E5E5"/>
<path d="M266.564 268.535C266.685 268.876 266.702 269.244 266.612 269.595C266.523 269.945 266.332 270.26 266.062 270.502C265.793 270.743 265.458 270.899 265.101 270.95C264.743 271.001 264.378 270.944 264.052 270.788C263.726 270.631 263.454 270.382 263.27 270.07C263.087 269.759 263 269.4 263.02 269.04C263.041 268.679 263.168 268.333 263.386 268.044C263.604 267.756 263.902 267.539 264.244 267.42C264.47 267.34 264.709 267.306 264.948 267.318C265.187 267.331 265.421 267.391 265.637 267.495C265.852 267.598 266.045 267.744 266.205 267.922C266.364 268.101 266.486 268.309 266.564 268.535Z" fill="#E5E5E5"/>
<path d="M327.895 162.485C327.978 162.711 328.016 162.951 328.006 163.192C327.996 163.433 327.939 163.67 327.838 163.888C327.737 164.107 327.593 164.304 327.416 164.467C327.239 164.631 327.031 164.758 326.804 164.841C326.347 165.009 325.842 164.989 325.399 164.784C324.957 164.58 324.614 164.208 324.446 163.751C324.278 163.294 324.298 162.79 324.503 162.348C324.707 161.906 325.079 161.563 325.536 161.395C325.994 161.227 326.499 161.247 326.941 161.452C327.384 161.656 327.727 162.028 327.895 162.485Z" fill="#E5E5E5"/>
<path d="M408.118 307.809C408.238 308.149 408.255 308.518 408.165 308.868C408.076 309.218 407.885 309.534 407.616 309.775C407.346 310.016 407.012 310.172 406.654 310.223C406.296 310.274 405.931 310.218 405.605 310.061C405.279 309.905 405.007 309.655 404.823 309.344C404.64 309.032 404.553 308.674 404.573 308.313C404.594 307.952 404.721 307.606 404.939 307.318C405.157 307.029 405.456 306.812 405.797 306.694C406.023 306.614 406.262 306.579 406.501 306.592C406.74 306.605 406.974 306.665 407.19 306.768C407.405 306.872 407.598 307.017 407.758 307.196C407.917 307.374 408.039 307.583 408.118 307.809Z" fill="#E5E5E5"/>
<path d="M199.313 235.596C199.471 236.055 199.441 236.558 199.229 236.994C199.018 237.431 198.642 237.766 198.184 237.927C197.843 238.045 197.475 238.058 197.126 237.967C196.778 237.875 196.464 237.682 196.225 237.413C195.985 237.144 195.831 236.809 195.782 236.452C195.732 236.096 195.79 235.732 195.947 235.408C196.104 235.084 196.353 234.813 196.664 234.63C196.975 234.447 197.333 234.361 197.693 234.381C198.053 234.401 198.398 234.527 198.687 234.743C198.975 234.96 199.193 235.257 199.313 235.596Z" fill="#E5E5E5"/>
<path d="M200.314 372.115C200.435 372.456 200.452 372.825 200.362 373.175C200.273 373.525 200.082 373.84 199.812 374.082C199.543 374.323 199.208 374.479 198.851 374.53C198.493 374.581 198.128 374.525 197.802 374.368C197.476 374.211 197.204 373.962 197.02 373.651C196.837 373.339 196.75 372.981 196.77 372.62C196.791 372.259 196.918 371.913 197.136 371.625C197.354 371.336 197.652 371.119 197.994 371.001C198.22 370.921 198.459 370.886 198.698 370.899C198.937 370.911 199.171 370.971 199.387 371.075C199.602 371.179 199.795 371.324 199.955 371.503C200.114 371.681 200.236 371.889 200.314 372.115Z" fill="#E5E5E5"/>
<path d="M248.826 425.73C248.946 426.07 248.963 426.439 248.874 426.789C248.784 427.139 248.593 427.455 248.324 427.696C248.055 427.937 247.72 428.093 247.362 428.144C247.004 428.195 246.639 428.139 246.313 427.982C245.987 427.826 245.715 427.576 245.532 427.265C245.348 426.954 245.261 426.595 245.282 426.234C245.302 425.874 245.43 425.527 245.647 425.239C245.865 424.951 246.164 424.734 246.505 424.615C246.961 424.46 247.46 424.49 247.894 424.699C248.327 424.907 248.662 425.277 248.826 425.73Z" fill="#E5E5E5"/>
<path d="M140.303 416.57C140.435 416.911 140.462 417.284 140.38 417.64C140.298 417.996 140.111 418.32 139.843 418.569C139.574 418.817 139.238 418.98 138.876 419.035C138.514 419.09 138.144 419.035 137.814 418.878C137.484 418.72 137.209 418.467 137.024 418.151C136.84 417.836 136.754 417.472 136.779 417.107C136.804 416.742 136.938 416.393 137.164 416.106C137.39 415.818 137.697 415.605 138.046 415.493C138.488 415.352 138.968 415.385 139.388 415.585C139.807 415.785 140.134 416.138 140.303 416.57Z" fill="#E5E5E5"/>
<path d="M5.84982 316.246L5.78641 316.512L-13.1313 385.696H-12.8017L90.9795 367.96L90.5104 367.669L5.84982 316.246ZM-12.5607 385.177L6.10342 316.892L89.7877 367.719L-12.5607 385.177Z" fill="#E5E5E5"/>
<path d="M91.474 366.972C91.5946 367.312 91.6113 367.681 91.5219 368.031C91.4326 368.381 91.2413 368.697 90.9721 368.938C90.703 369.179 90.3683 369.335 90.0103 369.386C89.6524 369.437 89.2873 369.381 88.9615 369.224C88.6356 369.068 88.3636 368.818 88.18 368.507C87.9963 368.196 87.9093 367.837 87.9298 367.476C87.9504 367.116 88.0777 366.769 88.2956 366.481C88.5135 366.193 88.8122 365.976 89.1537 365.857C89.3793 365.777 89.6184 365.742 89.8575 365.755C90.0965 365.768 90.3306 365.828 90.5463 365.932C90.762 366.035 90.955 366.18 91.1143 366.359C91.2735 366.538 91.3958 366.746 91.474 366.972Z" fill="#E5E5E5"/>
<path d="M6.85147 316.677C7.01018 317.134 6.98201 317.635 6.7731 318.071C6.56419 318.508 6.19141 318.844 5.73569 319.008C5.3952 319.127 5.02692 319.143 4.67734 319.054C4.32776 318.964 4.01256 318.773 3.77158 318.505C3.53059 318.236 3.3746 317.903 3.32333 317.546C3.27206 317.189 3.32779 316.825 3.48349 316.499C3.63919 316.174 3.88789 315.902 4.19815 315.718C4.50842 315.534 4.86634 315.446 5.22672 315.465C5.58709 315.484 5.93382 315.609 6.22299 315.825C6.51217 316.04 6.73084 316.337 6.85147 316.677Z" fill="#E5E5E5"/>
<path d="M-10.6715 384.67C-10.5509 385.011 -10.5342 385.379 -10.6236 385.73C-10.7129 386.08 -10.9043 386.395 -11.1734 386.637C-11.4425 386.878 -11.7773 387.034 -12.1352 387.085C-12.4932 387.136 -12.8582 387.079 -13.1841 386.923C-13.5099 386.766 -13.7819 386.517 -13.9655 386.205C-14.1492 385.894 -14.2363 385.535 -14.2157 385.175C-14.1951 384.814 -14.0678 384.468 -13.8499 384.179C-13.632 383.891 -13.3333 383.674 -12.9918 383.555C-12.5361 383.397 -12.0363 383.426 -11.6015 383.635C-11.1668 383.843 -10.8324 384.216 -10.6715 384.67Z" fill="#E5E5E5"/>
<path d="M111.152 285.853C111.273 286.194 111.29 286.563 111.2 286.913C111.111 287.263 110.92 287.579 110.651 287.82C110.381 288.061 110.047 288.217 109.689 288.268C109.331 288.319 108.966 288.263 108.64 288.106C108.314 287.949 108.042 287.7 107.858 287.389C107.675 287.077 107.588 286.719 107.608 286.358C107.629 285.997 107.756 285.651 107.974 285.363C108.192 285.074 108.491 284.857 108.832 284.739C109.058 284.659 109.297 284.624 109.536 284.637C109.775 284.65 110.009 284.709 110.225 284.813C110.44 284.917 110.634 285.062 110.793 285.241C110.952 285.419 111.074 285.627 111.152 285.853Z" fill="#E5E5E5"/>
<path d="M95.7089 184.794C95.8099 185.024 95.8622 185.273 95.8626 185.524C95.8629 185.775 95.8114 186.024 95.7111 186.254C95.6108 186.485 95.4639 186.692 95.2797 186.863C95.0956 187.034 94.8781 187.165 94.6408 187.248C94.4035 187.332 94.1515 187.365 93.9008 187.346C93.65 187.327 93.4059 187.257 93.1835 187.14C92.9612 187.022 92.7656 186.86 92.6089 186.664C92.4522 186.467 92.3377 186.241 92.2728 185.998C92.1539 185.554 92.2074 185.081 92.4225 184.674C92.6376 184.268 92.9984 183.957 93.4327 183.805C93.867 183.653 94.3428 183.67 94.7649 183.854C95.187 184.037 95.5242 184.373 95.7089 184.794Z" fill="#E5E5E5"/>
<path d="M1.53879 103.499C1.65837 103.839 1.67435 104.207 1.58475 104.556C1.49515 104.905 1.30399 105.22 1.03537 105.461C0.766747 105.702 0.432747 105.858 0.075531 105.909C-0.281685 105.96 -0.646088 105.904 -0.971649 105.749C-1.29721 105.593 -1.56932 105.345 -1.75363 105.035C-1.93794 104.725 -2.02622 104.367 -2.00723 104.007C-1.98824 103.647 -1.86283 103.301 -1.64694 103.012C-1.43105 102.723 -1.13434 102.504 -0.79422 102.384C-0.567795 102.303 -0.327713 102.269 -0.0877991 102.281C0.152115 102.294 0.387177 102.354 0.603912 102.457C0.820648 102.561 1.01477 102.706 1.1752 102.885C1.33563 103.064 1.45918 103.272 1.53879 103.499Z" fill="#E5E5E5"/>
<path d="M164.381 69.0901C164.501 69.4307 164.518 69.7994 164.429 70.1494C164.339 70.4995 164.148 70.8152 163.879 71.0564C163.61 71.2977 163.275 71.4537 162.917 71.5047C162.559 71.5556 162.194 71.4993 161.868 71.3427C161.542 71.1862 161.27 70.9365 161.087 70.6253C160.903 70.3141 160.816 69.9554 160.837 69.5947C160.857 69.234 160.984 68.8876 161.202 68.5993C161.42 68.311 161.719 68.0938 162.06 67.9753C162.286 67.8952 162.525 67.8606 162.764 67.8734C163.003 67.8862 163.237 67.9461 163.453 68.0498C163.669 68.1534 163.862 68.2987 164.021 68.4773C164.18 68.6558 164.303 68.8641 164.381 69.0901Z" fill="#E5E5E5"/>
<path d="M241.637 16.0331C241.717 16.2585 241.751 16.4975 241.738 16.7363C241.726 16.9751 241.666 17.209 241.562 17.4246C241.458 17.6401 241.313 17.833 241.134 17.9921C240.955 18.1512 240.747 18.2733 240.521 18.3515C240.065 18.5195 239.561 18.4998 239.12 18.2967C238.679 18.0935 238.337 17.7237 238.169 17.2684C238.001 16.8131 238.02 16.3097 238.224 15.869C238.427 15.4283 238.797 15.0863 239.253 14.9183C239.482 14.8283 239.727 14.7859 239.973 14.7937C240.22 14.8015 240.462 14.8593 240.685 14.9637C240.908 15.068 241.107 15.2166 241.271 15.4005C241.434 15.5844 241.559 15.7996 241.637 16.0331Z" fill="#E5E5E5"/>
<path d="M167.601 1.2233C167.68 1.44955 167.714 1.68918 167.701 1.92847C167.687 2.16776 167.626 2.40201 167.522 2.61789C167.418 2.83377 167.272 3.02701 167.093 3.18661C166.914 3.34622 166.706 3.46899 166.479 3.54803C166.253 3.62708 166.013 3.66074 165.773 3.64716C165.534 3.63358 165.3 3.57306 165.083 3.46893C164.867 3.36481 164.674 3.21918 164.514 3.04037C164.355 2.86157 164.232 2.65311 164.153 2.42685C163.993 1.96988 164.021 1.46826 164.232 1.03229C164.442 0.596313 164.817 0.261719 165.275 0.102112C165.732 -0.0574951 166.234 -0.0290222 166.67 0.181244C167.107 0.39151 167.442 0.766327 167.601 1.2233Z" fill="#E5E5E5"/>
<path d="M-22.2985 23.6471C-22.1779 23.9877 -22.1613 24.3564 -22.2506 24.7064C-22.34 25.0565 -22.5313 25.3721 -22.8004 25.6134C-23.0696 25.8547 -23.4043 26.0107 -23.7622 26.0616C-24.1202 26.1126 -24.4852 26.0562 -24.8111 25.8997C-25.1369 25.7431 -25.4089 25.4934 -25.5926 25.1823C-25.7762 24.8711 -25.8633 24.5124 -25.8427 24.1517C-25.8221 23.791 -25.6948 23.4445 -25.477 23.1562C-25.2591 22.868 -24.9604 22.6508 -24.6189 22.5323C-24.3933 22.4522 -24.1541 22.4176 -23.9151 22.4304C-23.6761 22.4432 -23.442 22.5031 -23.2263 22.6067C-23.0106 22.7104 -22.8175 22.8557 -22.6583 23.0342C-22.4991 23.2128 -22.3767 23.4211 -22.2985 23.6471Z" fill="#E5E5E5"/>
<path d="M-99.4529 20.822C-99.3323 21.1625 -99.3156 21.5312 -99.405 21.8813C-99.4943 22.2313 -99.6857 22.547 -99.9548 22.7883C-100.224 23.0295 -100.559 23.1855 -100.917 23.2365C-101.275 23.2874 -101.64 23.2311 -101.965 23.0745C-102.291 22.918 -102.563 22.6683 -102.747 22.3571C-102.931 22.0459 -103.018 21.6872 -102.997 21.3265C-102.976 20.9659 -102.849 20.6194 -102.631 20.3311C-102.413 20.0428 -102.115 19.8256 -101.773 19.7071C-101.548 19.627 -101.308 19.5924 -101.069 19.6052C-100.83 19.618 -100.596 19.678 -100.381 19.7816C-100.165 19.8853 -99.9718 20.0305 -99.8126 20.2091C-99.6534 20.3876 -99.5311 20.5959 -99.4529 20.822Z" fill="#E5E5E5"/>
</g>
</svg>
