<svg width="29" height="29" viewBox="0 0 29 29" fill="none" xmlns="http://www.w3.org/2000/svg">
<path d="M28.1564 24.2458C28.1564 26.4058 26.4058 28.1564 24.2458 28.1564H3.91062C1.75061 28.1564 0 26.4058 0 24.2458V3.91062C0 1.75061 1.75061 0 3.91062 0H24.2458C26.4058 0 28.1564 1.75061 28.1564 3.91062V24.2458Z" fill="#3F51B5"/>
<path d="M22.1864 14.8603H19.5529V25.0279H15.6423V14.8603H13.2959V11.7318H15.6423V9.8468C15.6453 7.10326 16.7849 5.47485 20.0173 5.47485H22.6814V8.60335H20.8941C19.6354 8.60335 19.5529 9.07384 19.5529 9.95068V11.7318H22.6814L22.1864 14.8603Z" fill="white"/>
</svg>
