<svg width="164" height="39" viewBox="0 0 164 39" fill="none" xmlns="http://www.w3.org/2000/svg">
<circle cx="151.137" cy="12.8627" r="12.8627" fill="#644EEE"/>
<path d="M147.111 17.0242C145.994 17.0242 145.123 16.7155 144.497 16.0981C143.879 15.4807 143.57 14.5992 143.57 13.4536V9.07959H145.38V13.3867C145.38 14.7851 145.961 15.4844 147.123 15.4844C147.688 15.4844 148.12 15.317 148.418 14.9823C148.716 14.6401 148.865 14.1082 148.865 13.3867V9.07959H150.652V13.4536C150.652 14.5992 150.34 15.4807 149.714 16.0981C149.096 16.7155 148.228 17.0242 147.111 17.0242Z" fill="white"/>
<path d="M156.868 15.2166H153.238L152.545 16.8903H150.691L154.176 9.07959H155.963L159.46 16.8903H157.561L156.868 15.2166ZM156.298 13.8441L155.058 10.8537L153.819 13.8441H156.298Z" fill="white"/>
<path d="M26.9049 13.035V22.861H6.45717V13.035H0V38.1379H6.45717V28.3119H26.9049V38.1379H33.362V13.035H26.9049Z" fill="url(#paint0_linear)"/>
<path d="M51.2986 38.4965C62.3117 38.4965 67.0828 33.8704 67.0828 25.5506C67.0828 17.2666 62.3117 12.6764 51.2986 12.6764C40.2497 12.6764 35.5144 17.2307 35.5144 25.5506C35.5144 33.9062 40.2497 38.4965 51.2986 38.4965ZM51.2986 33.0814C44.5903 33.0814 41.9716 30.7146 41.9716 25.5506C41.9716 20.4224 44.5545 18.0914 51.2986 18.0914C58.0428 18.0914 60.6256 20.4583 60.6256 25.5506C60.6256 30.6787 58.0069 33.0814 51.2986 33.0814Z" fill="url(#paint1_linear)"/>
<path d="M98.7784 22.2513C98.7784 16.657 94.8683 13.035 89.1644 13.035H69.4342V38.1379H75.8914V31.4318H86.2946L90.3482 38.1379H97.9533L93.3257 30.6787C96.6978 29.3519 98.7784 26.3395 98.7784 22.2513ZM75.8914 18.45H87.3708C89.3079 18.45 92.3213 18.45 92.3213 22.2513C92.3213 26.0168 89.3079 26.0168 87.3708 26.0168H75.8914V18.45Z" fill="url(#paint2_linear)"/>
<path d="M116.319 38.4965C127.332 38.4965 132.103 33.8704 132.103 25.5506C132.103 17.2666 127.332 12.6764 116.319 12.6764C105.27 12.6764 100.535 17.2307 100.535 25.5506C100.535 33.9062 105.27 38.4965 116.319 38.4965ZM116.319 33.0814C109.61 33.0814 106.992 30.7146 106.992 25.5506C106.992 20.4224 109.575 18.0914 116.319 18.0914C123.063 18.0914 125.646 20.4583 125.646 25.5506C125.646 30.6787 123.027 33.0814 116.319 33.0814Z" fill="url(#paint3_linear)"/>
<defs>
<linearGradient id="paint0_linear" x1="66.0515" y1="12.6764" x2="66.0515" y2="38.4965" gradientUnits="userSpaceOnUse">
<stop stop-color="#644EEE"/>
<stop offset="1" stop-color="#01A0D8"/>
</linearGradient>
<linearGradient id="paint1_linear" x1="66.0515" y1="12.6764" x2="66.0515" y2="38.4965" gradientUnits="userSpaceOnUse">
<stop stop-color="#644EEE"/>
<stop offset="1" stop-color="#01A0D8"/>
</linearGradient>
<linearGradient id="paint2_linear" x1="66.0515" y1="12.6764" x2="66.0515" y2="38.4965" gradientUnits="userSpaceOnUse">
<stop stop-color="#644EEE"/>
<stop offset="1" stop-color="#01A0D8"/>
</linearGradient>
<linearGradient id="paint3_linear" x1="66.0515" y1="12.6764" x2="66.0515" y2="38.4965" gradientUnits="userSpaceOnUse">
<stop stop-color="#644EEE"/>
<stop offset="1" stop-color="#01A0D8"/>
</linearGradient>
</defs>
</svg>
