<svg width="32" height="31" viewBox="0 0 32 31" fill="none" xmlns="http://www.w3.org/2000/svg">
<path d="M31.1776 2.54166C30.7216 2.54166 30.3484 2.9116 30.3484 3.36376V25.1836C30.3484 27.4924 28.4551 29.3627 26.1334 29.3627H5.87344C3.5448 29.3627 1.65838 27.4855 1.65838 25.1836V1.6442H25.933V22.8133C25.933 23.2654 26.3061 23.6354 26.7622 23.6354C27.2182 23.6354 27.5914 23.2654 27.5914 22.8133V0.822099C27.5914 0.369945 27.2182 0 26.7622 0H0.829192C0.373137 0 0 0.369945 0 0.822099V25.1768C0 28.3898 2.63268 31 5.87344 31H26.1265C29.3672 31 31.9999 28.3898 31.9999 25.1768V3.36376C32.0068 2.9116 31.6337 2.54166 31.1776 2.54166Z" fill="#094BB0"/>
<path d="M22.7545 6.38496C23.2105 6.38496 23.5837 6.01502 23.5837 5.56286C23.5837 5.11071 23.2105 4.74076 22.7545 4.74076H4.67806C4.22201 4.74076 3.84887 5.11071 3.84887 5.56286C3.84887 6.01502 4.22201 6.38496 4.67806 6.38496H22.7545Z" fill="#094BB0"/>
<path d="M22.7545 21.4979H4.67806C4.22201 21.4979 3.84887 21.8678 3.84887 22.32C3.84887 22.7721 4.22201 23.1421 4.67806 23.1421H22.7476C23.2036 23.1421 23.5767 22.7721 23.5767 22.32C23.5767 21.8678 23.2105 21.4979 22.7545 21.4979Z" fill="#094BB0"/>
<path d="M22.7544 25.7111H7.54569C7.08963 25.7111 6.71649 26.0811 6.71649 26.5332C6.71649 26.9854 7.08963 27.3553 7.54569 27.3553H22.7544C23.2105 27.3553 23.5836 26.9854 23.5836 26.5332C23.5836 26.0811 23.2105 25.7111 22.7544 25.7111Z" fill="#094BB0"/>
<path d="M3.57247 9.25549V18.1479C3.57247 18.6 3.94561 18.97 4.40167 18.97H13.4053C13.8614 18.97 14.2345 18.6 14.2345 18.1479V9.25549C14.2345 8.80333 13.8614 8.43339 13.4053 8.43339H4.40167C3.94561 8.43339 3.57247 8.80333 3.57247 9.25549ZM5.23086 10.0776H12.5761V17.3258H5.23086V10.0776Z" fill="#094BB0"/>
<path d="M23.1967 9.25549H17.2335C16.7774 9.25549 16.4043 9.62544 16.4043 10.0776C16.4043 10.5297 16.7774 10.8997 17.2335 10.8997H23.1967C23.6528 10.8997 24.0259 10.5297 24.0259 10.0776C24.0259 9.62544 23.6597 9.25549 23.1967 9.25549Z" fill="#094BB0"/>
<path d="M23.1967 12.9686H17.2335C16.7774 12.9686 16.4043 13.3386 16.4043 13.7907C16.4043 14.2429 16.7774 14.6128 17.2335 14.6128H23.1967C23.6528 14.6128 24.0259 14.2429 24.0259 13.7907C24.0259 13.3386 23.6597 12.9686 23.1967 12.9686Z" fill="#094BB0"/>
<path d="M24.0259 17.7368C24.0259 17.2846 23.6528 16.9147 23.1967 16.9147H17.2335C16.7774 16.9147 16.4043 17.2846 16.4043 17.7368C16.4043 18.1889 16.7774 18.5589 17.2335 18.5589H23.1967C23.6597 18.5589 24.0259 18.1889 24.0259 17.7368Z" fill="#094BB0"/>
</svg>
