<svg width="19" height="30" viewBox="0 0 19 30" fill="none" xmlns="http://www.w3.org/2000/svg">
<path d="M9.03524 16.4425C13.3597 16.4425 16.8655 12.9368 16.8655 8.61224C16.8655 4.28771 13.3598 0.782074 9.03524 0.782074C4.71071 0.782074 1.20508 4.28776 1.20508 8.61229C1.21039 12.9346 4.71297 16.4371 9.03524 16.4425ZM9.03524 4.39601C11.3638 4.39601 13.2515 6.28368 13.2515 8.61229C13.2515 10.9409 11.3639 12.8286 9.03524 12.8286C6.70662 12.8286 4.81896 10.9409 4.81896 8.61229C4.81896 6.28368 6.70668 4.39601 9.03524 4.39601Z" fill="#FF9800"/>
<path d="M16.705 20.1528C17.556 19.5923 18.0687 18.642 18.0699 17.623C18.0817 16.7773 17.6045 16.0008 16.8447 15.6293C16.0641 15.2394 15.1297 15.3272 14.4354 15.8558C11.2177 18.2016 6.8535 18.2016 3.63579 15.8558C2.94045 15.3299 2.00766 15.2423 1.22648 15.6293C0.467047 16.0007 -0.0103878 16.7764 0.00017163 17.6217C0.0019786 18.6405 0.514537 19.5906 1.36505 20.1515C2.45624 20.8772 3.64455 21.445 4.89469 21.838C5.10672 21.9039 5.32554 21.9649 5.55124 22.0212L1.91082 25.5809C0.955833 26.5075 0.932737 28.0327 1.85932 28.9878C2.7859 29.9427 4.31115 29.9658 5.26619 29.0393C5.28606 29.0199 5.3056 29.0004 5.3248 28.9804L9.03513 25.1399L12.7527 28.9876C13.6785 29.9433 15.2038 29.9676 16.1595 29.0418C17.1152 28.116 17.1395 26.5907 16.2137 25.635C16.1943 25.615 16.1746 25.5953 16.1546 25.576L12.5202 22.0199C12.7458 21.9621 12.9655 21.9007 13.1791 21.8356C14.4279 21.4441 15.615 20.8775 16.705 20.1528Z" fill="#FF9800"/>
</svg>
