<svg width="29" height="23" viewBox="0 0 29 23" fill="none" xmlns="http://www.w3.org/2000/svg">
<path d="M28.1595 2.77161C27.1238 3.22989 26.0117 3.5354 24.8385 3.679C26.03 2.9702 26.9497 1.83978 27.3804 0.504675C26.2622 1.16154 25.0249 1.6412 23.7112 1.89478C22.6602 0.779641 21.1601 0.0891724 19.4981 0.0891724C16.3085 0.0891724 13.7208 2.65246 13.7208 5.81456C13.7208 6.26061 13.7727 6.6975 13.8705 7.11912C9.0708 6.88082 4.81189 4.5986 1.96447 1.13404C1.46343 1.98032 1.18235 2.9702 1.18235 4.01812C1.18235 6.00398 2.19972 7.75459 3.75175 8.78419C2.80465 8.75669 1.91254 8.49089 1.13347 8.06928C1.13347 8.08761 1.13347 8.11205 1.13347 8.13649C1.13347 10.9136 3.12544 13.2264 5.76511 13.7549C5.28239 13.8863 4.77217 13.9596 4.24669 13.9596C3.87396 13.9596 3.51039 13.9169 3.15905 13.8527C3.89229 16.1227 6.02479 17.7817 8.55447 17.8305C6.57473 19.3642 4.08476 20.2838 1.37788 20.2838C0.91044 20.2838 0.452165 20.2563 0 20.2014C2.56023 21.8206 5.59707 22.7708 8.85694 22.7708C19.4828 22.7708 25.2968 14.0452 25.2968 6.47448C25.2968 6.22701 25.2876 5.97954 25.2754 5.73818C26.4089 4.93467 27.3865 3.92647 28.1595 2.77161Z" fill="#03A9F4"/>
</svg>
