<svg width="29" height="29" viewBox="0 0 29 29" fill="none" xmlns="http://www.w3.org/2000/svg">
<path d="M28.1564 24.5791C28.1564 26.7393 26.4061 28.4897 24.2458 28.4897H3.91062C1.75117 28.4897 0 26.7393 0 24.5791V4.24387C0 2.08364 1.75117 0.333252 3.91062 0.333252H24.2458C26.4061 0.333252 28.1564 2.08364 28.1564 4.24387V24.5791Z" fill="#1976D2"/>
<path d="M23.4141 9.75081C23.4501 9.63271 23.4673 9.52321 23.4626 9.42544C23.4508 9.14231 23.2561 8.93661 22.7978 8.93661H20.7502C20.2332 8.93661 19.9946 9.24946 19.8554 9.5631C19.8554 9.5631 18.579 12.1902 17.1078 13.9227C16.6307 14.424 16.3883 14.4115 16.1302 14.4115C15.9917 14.4115 15.6421 14.2441 15.6421 13.785V9.72969C15.6421 9.18689 15.5068 8.93661 15.0696 8.93661H11.4335C11.1152 8.93661 10.9494 9.1869 10.9494 9.43796C10.9494 9.95963 11.6517 10.0848 11.7315 11.5466V14.3802C11.7315 15.0685 11.6118 15.1936 11.3537 15.1936C10.6576 15.1936 9.28736 12.8472 8.36993 9.77192C8.17127 9.16656 7.97261 8.93661 7.45563 8.93661H5.38847C4.79171 8.93661 4.69238 9.22913 4.69238 9.54198C4.69238 10.1059 5.16166 13.1546 7.72311 16.6601C9.58065 19.202 12.0279 20.6685 14.1944 20.6685C15.5068 20.6685 15.6413 20.3345 15.6413 19.8128V17.4884C15.6421 16.8619 15.7852 16.7579 16.2029 16.7579C16.5009 16.7579 17.1086 16.9534 18.2818 18.3221C19.6349 19.9004 19.8804 20.6685 20.6563 20.6685H22.7039C23.1794 20.6685 23.4524 20.469 23.4633 20.0819C23.4657 19.9833 23.4516 19.873 23.4195 19.7503C23.2678 19.2998 22.5717 18.1985 21.7036 17.1489C21.2226 16.5678 20.7478 15.9922 20.5296 15.6793C20.3833 15.4752 20.3278 15.3313 20.3349 15.1936C20.3419 15.0489 20.417 14.9113 20.5296 14.7189C20.5093 14.7189 23.156 11.003 23.4141 9.75081Z" fill="white"/>
</svg>
