<svg xmlns="http://www.w3.org/2000/svg" width="59.969" height="59.969" viewBox="0 0 59.969 59.969">
  <metadata><?xpacket begin="﻿" id="W5M0MpCehiHzreSzNTczkc9d"?>
<x:xmpmeta xmlns:x="adobe:ns:meta/" x:xmptk="Adobe XMP Core 5.6-c142 79.160924, 2017/07/13-01:06:39        ">
   <rdf:RDF xmlns:rdf="http://www.w3.org/1999/02/22-rdf-syntax-ns#">
      <rdf:Description rdf:about=""/>
   </rdf:RDF>
</x:xmpmeta>
                                                                                                    
                                                                                                    
                                                                                                    
                                                                                                    
                                                                                                    
                                                                                                    
                                                                                                    
                                                                                                    
                                                                                                    
                                                                                                    
                                                                                                    
                                                                                                    
                                                                                                    
                                                                                                    
                                                                                                    
                                                                                                    
                                                                                                    
                                                                                                    
                                                                                                    
                                                                                                    
                           
<?xpacket end="w"?></metadata>
<defs>
    <style>
      .cls-1 {
        fill: #b8a177;
        fill-rule: evenodd;
      }
    </style>
  </defs>
  <path id="Rounded_Rectangle_5_copy_6" data-name="Rounded Rectangle 5 copy 6" class="cls-1" d="M476.213,711.713a29.985,29.985,0,1,1,7.607-29.562,1,1,0,1,1-1.921.554,28.042,28.042,0,1,0,1.077,6.635,1,1,0,0,1,2-.083A30.089,30.089,0,0,1,476.213,711.713Zm-23.8-10.1,11.2-10.214a1.2,1.2,0,0,0,0-1.8l-11.2-10.215a1.5,1.5,0,0,0-1.976,0,1.2,1.2,0,0,0,0,1.8l10.21,9.313-10.21,9.313a1.2,1.2,0,0,0,0,1.8A1.494,1.494,0,0,0,452.412,701.617Z" transform="translate(-425.031 -660.531)"/>
</svg>
