<svg xmlns="http://www.w3.org/2000/svg" width="60" height="60" viewBox="0 0 60 60">
  <metadata><?xpacket begin="﻿" id="W5M0MpCehiHzreSzNTczkc9d"?>
<x:xmpmeta xmlns:x="adobe:ns:meta/" x:xmptk="Adobe XMP Core 5.6-c142 79.160924, 2017/07/13-01:06:39        ">
   <rdf:RDF xmlns:rdf="http://www.w3.org/1999/02/22-rdf-syntax-ns#">
      <rdf:Description rdf:about=""/>
   </rdf:RDF>
</x:xmpmeta>
                                                                                                    
                                                                                                    
                                                                                                    
                                                                                                    
                                                                                                    
                                                                                                    
                                                                                                    
                                                                                                    
                                                                                                    
                                                                                                    
                                                                                                    
                                                                                                    
                                                                                                    
                                                                                                    
                                                                                                    
                                                                                                    
                                                                                                    
                                                                                                    
                                                                                                    
                                                                                                    
                           
<?xpacket end="w"?></metadata>
<defs>
    <style>
      .cls-1 {
        fill: #b8a177;
        fill-rule: evenodd;
      }
    </style>
  </defs>
  <path id="Rounded_Rectangle_5_copy_5" data-name="Rounded Rectangle 5 copy 5" class="cls-1" d="M375,720.5a29.985,29.985,0,1,1,26.283-15.525,1,1,0,1,1-1.751-.967,28.044,28.044,0,1,0-3.93,5.453,1,1,0,1,1,1.471,1.355A30.088,30.088,0,0,1,375,720.5Zm2.614-18.883-11.223-10.228a1.2,1.2,0,0,1,0-1.805l11.223-10.228a1.5,1.5,0,0,1,1.98,0,1.2,1.2,0,0,1,0,1.8l-10.233,9.325,10.233,9.326a1.2,1.2,0,0,1,0,1.8A1.5,1.5,0,0,1,377.614,701.617Z" transform="translate(-345 -660.5)"/>
</svg>
