<svg xmlns="http://www.w3.org/2000/svg" width="40.312" height="40.313" viewBox="0 0 40.312 40.313">
  <defs>
    <style>
      .cls-1 {
        fill: #fff;
        fill-rule: evenodd;
      }
    </style>
  </defs>
  <path class="cls-1" d="M327.764,46.625L317.647,56.742a1.165,1.165,0,0,0,1.646,1.646L329.41,48.271A1.165,1.165,0,0,0,327.764,46.625Zm-8.475-.03,10.117,10.142a1.166,1.166,0,0,1-1.645,1.65L317.644,48.245A1.166,1.166,0,0,1,319.289,46.595Zm22.574,15.256a0.843,0.843,0,0,0-.349-1.115,0.824,0.824,0,0,0-1.115.348,18.5,18.5,0,0,1-34.272-3.792,18.506,18.506,0,1,1,35.848-.363,0.847,0.847,0,0,0,.6,1,0.83,0.83,0,0,0,1-.6A20.2,20.2,0,1,0,341.863,61.851Z" transform="translate(-303.844 -32.344)"/>
</svg>
