<svg xmlns="http://www.w3.org/2000/svg" width="50" height="50" viewBox="0 0 50 50">
  <metadata><?xpacket begin="﻿" id="W5M0MpCehiHzreSzNTczkc9d"?>
<x:xmpmeta xmlns:x="adobe:ns:meta/" x:xmptk="Adobe XMP Core 5.6-c142 79.160924, 2017/07/13-01:06:39        ">
   <rdf:RDF xmlns:rdf="http://www.w3.org/1999/02/22-rdf-syntax-ns#">
      <rdf:Description rdf:about=""/>
   </rdf:RDF>
</x:xmpmeta>
                                                                                                    
                                                                                                    
                                                                                                    
                                                                                                    
                                                                                                    
                                                                                                    
                                                                                                    
                                                                                                    
                                                                                                    
                                                                                                    
                                                                                                    
                                                                                                    
                                                                                                    
                                                                                                    
                                                                                                    
                                                                                                    
                                                                                                    
                                                                                                    
                                                                                                    
                                                                                                    
                           
<?xpacket end="w"?></metadata>
<defs>
    <style>
      .cls-1 {
        fill: #171310;
        fill-rule: evenodd;
      }
    </style>
  </defs>
  <path id="Forma_1" data-name="Forma 1" class="cls-1" d="M519.146,7875.46a25,25,0,1,1-6.828-24.5,0.833,0.833,0,1,1-1.156,1.2,23.369,23.369,0,1,0,3.542,4.34,0.833,0.833,0,1,1,1.408-.89A25.052,25.052,0,0,1,519.146,7875.46ZM499.623,7860h-2.4c-2.7,0-4.436,1.83-4.436,4.67v2.16h-2.412a0.381,0.381,0,0,0-.377.39v3.12a0.381,0.381,0,0,0,.377.39h2.412v7.88a0.38,0.38,0,0,0,.377.39h3.146a0.38,0.38,0,0,0,.377-0.39v-7.88h2.82a0.381,0.381,0,0,0,.377-0.39v-3.12a0.386,0.386,0,0,0-.11-0.27,0.352,0.352,0,0,0-.267-0.12h-2.821V7865a1.085,1.085,0,0,1,1.318-1.32h1.616a0.387,0.387,0,0,0,.377-0.39v-2.9A0.387,0.387,0,0,0,499.623,7860Z" transform="translate(-470 -7844)"/>
</svg>
