<svg xmlns="http://www.w3.org/2000/svg" width="50" height="50" viewBox="0 0 50 50">
  <metadata><?xpacket begin="﻿" id="W5M0MpCehiHzreSzNTczkc9d"?>
<x:xmpmeta xmlns:x="adobe:ns:meta/" x:xmptk="Adobe XMP Core 5.6-c142 79.160924, 2017/07/13-01:06:39        ">
   <rdf:RDF xmlns:rdf="http://www.w3.org/1999/02/22-rdf-syntax-ns#">
      <rdf:Description rdf:about=""/>
   </rdf:RDF>
</x:xmpmeta>
                                                                                                    
                                                                                                    
                                                                                                    
                                                                                                    
                                                                                                    
                                                                                                    
                                                                                                    
                                                                                                    
                                                                                                    
                                                                                                    
                                                                                                    
                                                                                                    
                                                                                                    
                                                                                                    
                                                                                                    
                                                                                                    
                                                                                                    
                                                                                                    
                                                                                                    
                                                                                                    
                           
<?xpacket end="w"?></metadata>
<defs>
    <style>
      .cls-1 {
        fill: #171310;
        fill-rule: evenodd;
      }
    </style>
  </defs>
  <path id="Forma_1" data-name="Forma 1" class="cls-1" d="M535,7869a24.993,24.993,0,1,1,12.937,21.9,0.834,0.834,0,0,1,.806-1.46,23.337,23.337,0,1,0-4.544-3.27,0.831,0.831,0,0,1-1.129,1.22A25.054,25.054,0,0,1,535,7869Zm34-1.85v7.37a3.482,3.482,0,0,1-3.477,3.48h-11.04a3.481,3.481,0,0,1-3.477-3.48v-11.04a3.481,3.481,0,0,1,3.477-3.48h11.039a3.482,3.482,0,0,1,3.478,3.48v3.67Zm-9,5.02a3.167,3.167,0,1,0-3.168-3.17A3.172,3.172,0,0,0,560,7872.17Zm6.915-7.05v-3.05l-0.4.01h-2.654l0.011,3.05ZM564.92,7869a4.921,4.921,0,1,1-9.48-1.85h-2.686v7.37a1.723,1.723,0,0,0,1.725,1.72h11.039a1.723,1.723,0,0,0,1.724-1.72v-7.37h-2.687A4.9,4.9,0,0,1,564.92,7869Z" transform="translate(-535 -7844)"/>
</svg>
