<svg xmlns="http://www.w3.org/2000/svg" width="40.312" height="40.313" viewBox="0 0 40.312 40.313">
  <defs>
    <style>
      .cls-1 {
        fill: #b8a177;
        fill-rule: evenodd;
      }
    </style>
  </defs>
  <path class="cls-1" d="M318.154,47h12.692a1.2,1.2,0,0,1,0,2.4H318.154A1.2,1.2,0,0,1,318.154,47Zm0,4.8h12.692a1.2,1.2,0,0,1,0,2.4H318.154A1.2,1.2,0,0,1,318.154,51.8Zm0,4.8h12.692a1.2,1.2,0,0,1,0,2.4H318.154A1.2,1.2,0,0,1,318.154,56.6Zm23.709,5.251a0.843,0.843,0,0,0-.349-1.115,0.824,0.824,0,0,0-1.115.348,18.5,18.5,0,0,1-34.272-3.792,18.506,18.506,0,1,1,35.848-.363,0.847,0.847,0,0,0,.6,1,0.83,0.83,0,0,0,1-.6A20.2,20.2,0,1,0,341.863,61.851Z" transform="translate(-303.844 -32.344)"/>
</svg>
