<svg xmlns="http://www.w3.org/2000/svg" width="50" height="50" viewBox="0 0 50 50">
  <metadata><?xpacket begin="﻿" id="W5M0MpCehiHzreSzNTczkc9d"?>
<x:xmpmeta xmlns:x="adobe:ns:meta/" x:xmptk="Adobe XMP Core 5.6-c142 79.160924, 2017/07/13-01:06:39        ">
   <rdf:RDF xmlns:rdf="http://www.w3.org/1999/02/22-rdf-syntax-ns#">
      <rdf:Description rdf:about=""/>
   </rdf:RDF>
</x:xmpmeta>
                                                                                                    
                                                                                                    
                                                                                                    
                                                                                                    
                                                                                                    
                                                                                                    
                                                                                                    
                                                                                                    
                                                                                                    
                                                                                                    
                                                                                                    
                                                                                                    
                                                                                                    
                                                                                                    
                                                                                                    
                                                                                                    
                                                                                                    
                                                                                                    
                                                                                                    
                                                                                                    
                           
<?xpacket end="w"?></metadata>
<defs>
    <style>
      .cls-1 {
        fill: #b8a177;
        fill-rule: evenodd;
      }
    </style>
  </defs>
  <path id="Rounded_Rectangle_5_copy_7" data-name="Rounded Rectangle 5 copy 7" class="cls-1" d="M1385.15,75.462a24.99,24.99,0,1,1-6.83-24.5,0.835,0.835,0,0,1-1.16,1.2,23.4,23.4,0,1,0,3.54,4.34,0.834,0.834,0,0,1,1.41-.893A25.1,25.1,0,0,1,1385.15,75.462Zm-15.18-1.28a1.99,1.99,0,0,0-.91-0.64c-0.16-.089-0.37-0.21-0.66-0.363s-0.53-.293-0.76-0.423-0.45-.253-0.65-0.374q-0.045-.037-0.3-0.212a3.26,3.26,0,0,0-.43-0.26,0.8,0.8,0,0,0-.34-0.084,1.013,1.013,0,0,0-.61.344,5.883,5.883,0,0,0-.66.748,7.738,7.738,0,0,1-.64.749,0.923,0.923,0,0,1-.56.344,0.84,0.84,0,0,1-.27-0.06c-0.11-.04-0.19-0.075-0.25-0.1s-0.15-.085-0.29-0.17-0.21-.131-0.22-0.138a11.944,11.944,0,0,1-4.94-4.939c-0.01-.016-0.06-0.093-0.14-0.229a3.26,3.26,0,0,1-.17-0.29,2.2,2.2,0,0,1-.1-0.247,0.818,0.818,0,0,1-.06-0.271,0.905,0.905,0,0,1,.34-0.556,7.335,7.335,0,0,1,.75-0.64,5.887,5.887,0,0,0,.75-0.664,0.989,0.989,0,0,0,.34-0.6,0.876,0.876,0,0,0-.08-0.344c-0.06-.117-0.15-0.26-0.26-0.429s-0.19-.27-0.21-0.3c-0.13-.2-0.25-0.417-0.38-0.646s-0.27-.485-0.42-0.767-0.27-.5-0.36-0.652a2.183,2.183,0,0,0-.64-0.918,0.694,0.694,0,0,0-.26-0.036,4.028,4.028,0,0,0-.85.121,5.081,5.081,0,0,0-.83.254,3.242,3.242,0,0,0-1.28,1.473,4.679,4.679,0,0,0-.61,2.246,4.379,4.379,0,0,0,.04.633,5.977,5.977,0,0,0,.15.695,5.65,5.65,0,0,0,.18.573c0.04,0.125.12,0.349,0.24,0.67s0.2,0.52.22,0.593a11.225,11.225,0,0,0,1,2.113,18.093,18.093,0,0,0,2.61,3.194,17.61,17.61,0,0,0,3.19,2.6,10.94,10.94,0,0,0,2.11,1c0.08,0.024.27,0.1,0.59,0.218s0.55,0.2.68,0.248,0.31,0.1.57,0.175a5.389,5.389,0,0,0,.69.151,4.734,4.734,0,0,0,.64.042,4.647,4.647,0,0,0,2.24-.616,3.235,3.235,0,0,0,1.48-1.28,4.663,4.663,0,0,0,.25-0.827,4.009,4.009,0,0,0,.12-0.851A0.57,0.57,0,0,0,1369.97,74.182Z" transform="translate(-1336 -44)"/>
</svg>
