<svg xmlns="http://www.w3.org/2000/svg" width="120" height="79" viewBox="0 0 120 79">
  <metadata><?xpacket begin="﻿" id="W5M0MpCehiHzreSzNTczkc9d"?>
<x:xmpmeta xmlns:x="adobe:ns:meta/" x:xmptk="Adobe XMP Core 5.6-c142 79.160924, 2017/07/13-01:06:39        ">
   <rdf:RDF xmlns:rdf="http://www.w3.org/1999/02/22-rdf-syntax-ns#">
      <rdf:Description rdf:about=""/>
   </rdf:RDF>
</x:xmpmeta>
                                                                                                    
                                                                                                    
                                                                                                    
                                                                                                    
                                                                                                    
                                                                                                    
                                                                                                    
                                                                                                    
                                                                                                    
                                                                                                    
                                                                                                    
                                                                                                    
                                                                                                    
                                                                                                    
                                                                                                    
                                                                                                    
                                                                                                    
                                                                                                    
                                                                                                    
                                                                                                    
                           
<?xpacket end="w"?></metadata>
<defs>
    <style>
      .cls-1 {
        fill: #b8a177;
        fill-rule: evenodd;
      }
    </style>
  </defs>
  <path class="cls-1" d="M1329.19,4580.39h-1.57v-47.24l0.15-.15a7.064,7.064,0,0,0,2.21-5.16,7.17,7.17,0,0,0-14.34,0,7.059,7.059,0,0,0,1.51,4.39l0.31,0.41-0.41.31c-1.84,1.4-5.55,3.75-9.61,3.75a9.853,9.853,0,0,1-4.19-.92,16.69,16.69,0,0,1-5.93-4.64l-0.11-.14v-7.49l0.15-.15a7.081,7.081,0,0,0,2.25-5.2,7.175,7.175,0,0,0-14.35,0,7.081,7.081,0,0,0,2.25,5.2l0.16,0.15v36.82h-27.34v-36.82l0.16-.15a7.081,7.081,0,0,0,2.25-5.2,7.175,7.175,0,0,0-14.35,0,7.081,7.081,0,0,0,2.25,5.2l0.15,0.15v7.51l-0.11.14a16.772,16.772,0,0,1-5.93,4.62c-3.03,1.41-6.52,1.19-10.26-.64a21.723,21.723,0,0,1-3.54-2.19l-0.41-.31,0.31-.41a7.059,7.059,0,0,0,1.51-4.39,7.17,7.17,0,0,0-14.34,0,7.064,7.064,0,0,0,2.21,5.16l0.15,0.15v47.24h-1.57a4.805,4.805,0,1,0,0,9.61h93.01a1.265,1.265,0,0,0,0-2.53h-93.01a2.275,2.275,0,1,1,0-4.55h110.38a2.275,2.275,0,1,1,0,4.55h-9.81a1.265,1.265,0,0,0,0,2.53h9.81A4.805,4.805,0,1,0,1329.19,4580.39Zm-36.75-66.86a4.635,4.635,0,1,1-4.65,4.63A4.641,4.641,0,0,1,1292.44,4513.53Zm-36.88,0a4.635,4.635,0,1,1-4.64,4.63A4.643,4.643,0,0,1,1255.56,4513.53Zm2.24,11.47v35.33h-4.48v-28.44l0.1-.14a21.306,21.306,0,0,0,3.06-6.19l0.09-.3,0.31-.06a1.594,1.594,0,0,0,.3-0.06Zm-30.33,55.39h-4.56v-45.73l0.63,0.15a7.121,7.121,0,0,0,3.31,0l0.62-.15v45.73Zm-2.28-47.91a4.64,4.64,0,1,1,4.65-4.64A4.643,4.643,0,0,1,1225.19,4532.48Zm6.95,47.91,7.28-6.26a1.266,1.266,0,0,0,.14-1.78,1.317,1.317,0,0,0-1.79-.14l-7.77,6.69v-43.48l0.79,0.52a18.292,18.292,0,0,0,9.76,3.3,12.351,12.351,0,0,0,5.27-1.17,19.39,19.39,0,0,0,4.14-2.61l0.83-.69v26.24l-6.92,5.96a1.255,1.255,0,0,0-.13,1.78,1.293,1.293,0,0,0,1.78.13l7.01-6.02h42.94l20.39,17.53h-83.72Zm85.86-1.49-20.79-17.89V4550.5a1.265,1.265,0,0,0-2.53,0v9.83h-4.49V4525l0.63,0.14a2.817,2.817,0,0,0,.31.07l0.3,0.05,0.09,0.3a21.306,21.306,0,0,0,3.06,6.19l0.1,0.14v10.94a1.265,1.265,0,0,0,2.53,0v-8.06l0.83,0.69a19.145,19.145,0,0,0,4.14,2.61,12.351,12.351,0,0,0,5.27,1.17,18.322,18.322,0,0,0,9.76-3.3l0.79-.52v43.48Zm7.09,1.49h-4.56v-45.73l0.62,0.15a7.121,7.121,0,0,0,3.31,0l0.63-.15v45.73Zm-2.28-47.91a4.64,4.64,0,1,1,4.64-4.64A4.652,4.652,0,0,1,1322.81,4532.48Z" transform="translate(-1214 -4511)"/>
</svg>
