<svg xmlns="http://www.w3.org/2000/svg" width="120" height="65" viewBox="0 0 120 65">
  <metadata><?xpacket begin="﻿" id="W5M0MpCehiHzreSzNTczkc9d"?>
<x:xmpmeta xmlns:x="adobe:ns:meta/" x:xmptk="Adobe XMP Core 5.6-c142 79.160924, 2017/07/13-01:06:39        ">
   <rdf:RDF xmlns:rdf="http://www.w3.org/1999/02/22-rdf-syntax-ns#">
      <rdf:Description rdf:about=""/>
   </rdf:RDF>
</x:xmpmeta>
                                                                                                    
                                                                                                    
                                                                                                    
                                                                                                    
                                                                                                    
                                                                                                    
                                                                                                    
                                                                                                    
                                                                                                    
                                                                                                    
                                                                                                    
                                                                                                    
                                                                                                    
                                                                                                    
                                                                                                    
                                                                                                    
                                                                                                    
                                                                                                    
                                                                                                    
                                                                                                    
                           
<?xpacket end="w"?></metadata>
<defs>
    <style>
      .cls-1 {
        fill: #b8a177;
        fill-rule: evenodd;
      }
    </style>
  </defs>
  <path class="cls-1" d="M913.824,4431.64H912.68l-0.162-.35a232.743,232.743,0,0,0-17.107-30.45c-6.194-9.17-12.383-16.5-18.4-21.76-7.639-6.68-15.047-10.07-22.015-10.07s-14.376,3.39-22.016,10.07c-6.012,5.26-12.2,12.59-18.395,21.76a232.743,232.743,0,0,0-17.107,30.45l-0.162.35h-1.144a1.175,1.175,0,0,0,0,2.35H913.824A1.175,1.175,0,0,0,913.824,4431.64Zm-90.789-38.42c11.449-14.51,22.2-21.87,31.965-21.87s20.515,7.36,31.964,21.86l1.1,1.4-1.733-.44a116.85,116.85,0,0,0-62.671,0l-1.733.45Zm23.809-.66-0.7,1.05a225.213,225.213,0,0,0-13.117,22.62l-2.623,5.14,1.5-5.57c2.221-8.26,4.5-15.65,6.778-21.98l0.123-.34,0.36-.05c2.16-.31,4.321-0.57,6.422-0.76Zm-38.2,39.08H799.9l0.407-.85a231.478,231.478,0,0,1,16.222-28.63c0.991-1.47,2-2.91,3-4.29l0.123-.17,0.2-.06c1.278-.37,2.547-0.71,3.81-1.04l1.388-.36-0.706,1.24a248.443,248.443,0,0,0-15.553,33.77Zm16.955,0H811.133l0.308-.81c2.282-6.02,8.472-21.49,16.646-35.13l0.132-.22,0.253-.06c2.235-.5,4.482-0.96,6.679-1.35l1.017-.18-0.338.97a357.316,357.316,0,0,0-10.13,36.31Zm2.711,0,0.371-.84c0.467-1.06,1.081-2.43,1.831-4.05l0.162-.35h5.354a1.175,1.175,0,0,0,0-2.35h-4.249l0.413-.86a233.186,233.186,0,0,1,17.461-30.57l0.17-.25,0.3-.01c1.7-.08,3.341-0.13,4.881-0.13s3.182,0.05,4.881.13l0.3,0.01,0.17,0.25a233.417,233.417,0,0,1,17.461,30.57l0.414,0.86H843.615a1.175,1.175,0,0,0,0,2.35h35.714l0.162,0.35c0.75,1.62,1.365,2.99,1.831,4.05l0.371,0.84H828.306Zm56.1,0.01-0.105-.48c-0.964-4.32-3.6-15.68-7.311-27.7a1.169,1.169,0,1,0-2.234.69c1.125,3.65,2.252,7.57,3.348,11.65l1.5,5.56-2.621-5.13a226.733,226.733,0,0,0-13.123-22.63l-0.7-1.05,1.257,0.11c2.1,0.19,4.262.45,6.422,0.76l0.361,0.05,0.123,0.34c0.386,1.07.775,2.18,1.16,3.31a1.2,1.2,0,0,0,1.482.74,1.182,1.182,0,0,0,.731-1.5c-0.173-.5-0.347-1.01-0.522-1.51l-0.339-.97,1.018,0.18c2.2,0.39,4.448.84,6.678,1.35l0.253,0.06,0.132,0.22c8.185,13.65,14.368,29.12,16.646,35.13l0.309,0.82H884.405Zm16.956-.01-0.146-.39a248.737,248.737,0,0,0-15.555-33.78l-0.706-1.24,1.388,0.37c1.263,0.33,2.535.68,3.812,1.04l0.2,0.06,0.122,0.17c1,1.38,2,2.81,2.97,4.25a230.822,230.822,0,0,1,16.248,28.67l0.407,0.85h-8.742Z" transform="translate(-795 -4369)"/>
</svg>
