<svg xmlns="http://www.w3.org/2000/svg" width="120" height="79" viewBox="0 0 120 79">
  <metadata><?xpacket begin="﻿" id="W5M0MpCehiHzreSzNTczkc9d"?>
<x:xmpmeta xmlns:x="adobe:ns:meta/" x:xmptk="Adobe XMP Core 5.6-c142 79.160924, 2017/07/13-01:06:39        ">
   <rdf:RDF xmlns:rdf="http://www.w3.org/1999/02/22-rdf-syntax-ns#">
      <rdf:Description rdf:about=""/>
   </rdf:RDF>
</x:xmpmeta>
                                                                                                    
                                                                                                    
                                                                                                    
                                                                                                    
                                                                                                    
                                                                                                    
                                                                                                    
                                                                                                    
                                                                                                    
                                                                                                    
                                                                                                    
                                                                                                    
                                                                                                    
                                                                                                    
                                                                                                    
                                                                                                    
                                                                                                    
                                                                                                    
                                                                                                    
                                                                                                    
                           
<?xpacket end="w"?></metadata>
<defs>
    <style>
      .cls-1 {
        fill: #b8a177;
        fill-rule: evenodd;
      }
    </style>
  </defs>
  <path class="cls-1" d="M407.277,4412.06a1.283,1.283,0,0,0,1.264,1.19l0.092-.01a1.277,1.277,0,0,0,1.175-1.37c-0.042-.6-0.063-1.21-0.063-1.82a25.213,25.213,0,0,1,45.989-14.54,1.3,1.3,0,0,0,1.765.31,1.284,1.284,0,0,0,.315-1.78,27.748,27.748,0,0,0-50.606,16.01Q407.207,4411.055,407.277,4412.06Zm56.619,18.3a23.994,23.994,0,0,0,8.95,1.97h0a1.281,1.281,0,0,0,.09-2.56,21.685,21.685,0,0,1-8.128-1.8,27.235,27.235,0,0,0-20.488,0,24.837,24.837,0,0,1-18.665,0,27.245,27.245,0,0,0-20.492,0,21.6,21.6,0,0,1-8.1,1.8,1.281,1.281,0,0,0,.048,2.56,24.1,24.1,0,0,0,8.965-1.97,24.712,24.712,0,0,1,18.665,0,27.225,27.225,0,0,0,20.484,0A24.729,24.729,0,0,1,463.9,4430.36Zm-80.049-45.09h28.418a1.282,1.282,0,0,0,1.268-1.29,11.483,11.483,0,0,0-11.417-11.52,11.175,11.175,0,0,0-6.922,2.4l-0.208.16-0.251-.08a9.338,9.338,0,0,0-2.769-.43,9.441,9.441,0,0,0-9.388,9.47A1.282,1.282,0,0,0,383.847,4385.27Zm1.54-3.22a6.889,6.889,0,0,1,6.579-4.97,6.813,6.813,0,0,1,2.759.59,1.282,1.282,0,0,0,1.373-.23,8.769,8.769,0,0,1,6.018-2.41,8.949,8.949,0,0,1,8.681,7.06l0.131,0.61H385.2Zm108.345,36.28a24.428,24.428,0,0,0-10.25,1.99,24.732,24.732,0,0,1-18.673,0,27.377,27.377,0,0,0-20.494,0,24.7,24.7,0,0,1-18.661,0,27.367,27.367,0,0,0-20.49,0,24.686,24.686,0,0,1-18.655,0,24.4,24.4,0,0,0-10.241-1.99,1.28,1.28,0,0,0,0,2.56,21.89,21.89,0,0,1,9.326,1.83,27.336,27.336,0,0,0,20.478,0,24.719,24.719,0,0,1,18.668,0,27.351,27.351,0,0,0,20.484,0,24.727,24.727,0,0,1,18.671,0,27.377,27.377,0,0,0,20.494,0,21.99,21.99,0,0,1,9.343-1.83A1.28,1.28,0,0,0,493.732,4418.33Zm-39.173,15.29a24.407,24.407,0,0,0-10.242,1.99,24.707,24.707,0,0,1-18.663,0,24.4,24.4,0,0,0-10.247-1.99,1.28,1.28,0,0,0,0,2.56,21.943,21.943,0,0,1,9.333,1.82,27.24,27.24,0,0,0,20.49,0,21.933,21.933,0,0,1,9.329-1.82A1.28,1.28,0,0,0,454.559,4433.62Zm-35.27-61.82a1.283,1.283,0,0,0-.686,1.67l1.45,3.53a1.27,1.27,0,1,0,2.343-.98l-1.45-3.53a1.264,1.264,0,0,0-1.172-.79A1.168,1.168,0,0,0,419.289,4371.8Zm29,5.89a1.276,1.276,0,0,0,1.657-.69l1.449-3.53a1.3,1.3,0,0,0-.686-1.68,1.336,1.336,0,0,0-.484-0.09,1.264,1.264,0,0,0-1.172.79l-1.45,3.53A1.282,1.282,0,0,0,448.29,4377.69Zm11.268,7.6a1.294,1.294,0,0,0,1.791,0l8.039-8.11a1.287,1.287,0,0,0,0-1.81,1.248,1.248,0,0,0-1.793,0l-8.037,8.1A1.3,1.3,0,0,0,459.558,4385.29Zm-69.706,43.82a28.724,28.724,0,0,1-3.345-1.14,1.2,1.2,0,0,0-.457-0.09,1.285,1.285,0,0,0-.457,2.48,30.848,30.848,0,0,0,3.623,1.23,1.261,1.261,0,0,0,1.546-.91A1.291,1.291,0,0,0,389.852,4429.11Zm43.88-55.36a1.268,1.268,0,1,0,2.536,0v-11.47a1.268,1.268,0,1,0-2.536,0v11.47Zm-46.1,37.59H399a1.285,1.285,0,0,0,0-2.57H387.636A1.285,1.285,0,0,0,387.636,4411.34Zm93.15,20.25a31.314,31.314,0,0,0,3.583-1.22l0.344-.14a1.279,1.279,0,0,0-.455-2.47,1.4,1.4,0,0,0-.454.08l-0.324.13a28.958,28.958,0,0,1-3.329,1.14A1.28,1.28,0,0,0,480.786,4431.59Zm-83.029-35.71,3.5,1.46a1.276,1.276,0,0,0,1.657-.69,1.3,1.3,0,0,0-.687-1.68l-3.5-1.46a1.336,1.336,0,0,0-.484-0.09,1.264,1.264,0,0,0-1.172.79A1.282,1.282,0,0,0,397.757,4395.88Zm73.515-2.37-3.5,1.47a1.276,1.276,0,0,0,.971,2.36l3.5-1.46a1.282,1.282,0,0,0,.687-1.67,1.266,1.266,0,0,0-1.173-.79A1.336,1.336,0,0,0,471.272,4393.51Zm-6.5,8.98a9.285,9.285,0,0,0-2.767.43l-0.252.08-0.209-.16a11.154,11.154,0,0,0-6.921-2.39,11.478,11.478,0,0,0-11.418,11.52,1.28,1.28,0,0,0,1.269,1.28h28.418a1.28,1.28,0,0,0,1.269-1.28A9.444,9.444,0,0,0,464.771,4402.49Zm-18.961,8.19,0.131-.61a8.949,8.949,0,0,1,8.681-7.06,8.815,8.815,0,0,1,6.018,2.41,1.284,1.284,0,0,0,1.374.23,6.8,6.8,0,0,1,2.757-.59,6.886,6.886,0,0,1,6.58,4.98l0.187,0.64H445.81Z" transform="translate(-375 -4361)"/>
</svg>
