<svg xmlns="http://www.w3.org/2000/svg" width="109" height="82" viewBox="0 0 109 82">
  <metadata><?xpacket begin="﻿" id="W5M0MpCehiHzreSzNTczkc9d"?>
<x:xmpmeta xmlns:x="adobe:ns:meta/" x:xmptk="Adobe XMP Core 5.6-c142 79.160924, 2017/07/13-01:06:39        ">
   <rdf:RDF xmlns:rdf="http://www.w3.org/1999/02/22-rdf-syntax-ns#">
      <rdf:Description rdf:about=""/>
   </rdf:RDF>
</x:xmpmeta>
                                                                                                    
                                                                                                    
                                                                                                    
                                                                                                    
                                                                                                    
                                                                                                    
                                                                                                    
                                                                                                    
                                                                                                    
                                                                                                    
                                                                                                    
                                                                                                    
                                                                                                    
                                                                                                    
                                                                                                    
                                                                                                    
                                                                                                    
                                                                                                    
                                                                                                    
                                                                                                    
                           
<?xpacket end="w"?></metadata>
<defs>
    <style>
      .cls-1 {
        fill: #b8a177;
        fill-rule: evenodd;
      }
    </style>
  </defs>
  <path class="cls-1" d="M909,4550.63a4.31,4.31,0,0,0-4.309-4.3h-4.044l-0.022-.35a23.043,23.043,0,0,0-4.13-11.67,1.288,1.288,0,0,0-1.737-.33,1.242,1.242,0,0,0-.525.79,1.207,1.207,0,0,0,.193.92,20.718,20.718,0,0,1,3.7,10.24l0.03,0.4H824.127a1.23,1.23,0,1,0,0,2.46h80.561a1.842,1.842,0,0,1,1.846,1.84v1.95a1.85,1.85,0,0,1-1.846,1.85H804.311a1.85,1.85,0,0,1-1.846-1.85v-1.95a1.842,1.842,0,0,1,1.846-1.84h12.333a1.23,1.23,0,1,0,0-2.46h-5.68l0.03-.4c1.164-15.39,19.485-26.56,43.563-26.56,14.054,0,26.79,3.98,34.941,10.93a1.315,1.315,0,0,0,1.765-.13,1.222,1.222,0,0,0,.3-0.9,1.2,1.2,0,0,0-.429-0.84c-7.235-6.17-17.882-10.15-29.979-11.23l-0.6-.05,0.312-.51a7.443,7.443,0,0,0,1.091-3.85c0-.77-0.358-2.2-2.752-3.08a15.948,15.948,0,0,0-9.411,0c-2.393.88-2.751,2.31-2.751,3.08a7.443,7.443,0,0,0,1.091,3.85l0.311,0.51-0.6.05c-22.2,1.97-38.379,13.81-39.357,28.78l-0.022.35h-4.156a4.31,4.31,0,0,0-4.308,4.3v1.95a4.31,4.31,0,0,0,4.308,4.3h18.5l-1,.68a20.132,20.132,0,0,0-2.419,1.95,1.744,1.744,0,0,0-.133.14l-0.09.08-4.928,3.2-0.214-.2a4.074,4.074,0,0,0-5.652.08l-3.794,3.76a4.044,4.044,0,0,0-.028,5.72l17.449,17.52a3.975,3.975,0,0,0,2.866,1.19h0.011a4.055,4.055,0,0,0,2.868-1.18l3.794-3.76a4.043,4.043,0,0,0,.029-5.72l-0.4-.4,0.339-.26a3.686,3.686,0,0,1,2.388-.75c0.345,0,.7.03,1.052,0.06a8.186,8.186,0,0,0,2.227-.07,23.86,23.86,0,0,1,5.248-.53,49.591,49.591,0,0,1,7.877.74,30.371,30.371,0,0,0,12.925-.69l5.91-1.63a30.059,30.059,0,0,0,10.641-5.37l10.2-9.01a4.572,4.572,0,0,0,1.4-5.06l-0.158-.49h13.464a4.31,4.31,0,0,0,4.309-4.3v-1.95Zm-59.409-38c0.458-.57,2.335-1.18,4.912-1.18s4.455,0.61,4.912,1.18l0.083,0.1,0,0.14a4.992,4.992,0,0,1-2.143,4.01l-0.1.07h-0.125c-1.742-.06-3.512-0.06-5.244,0l-0.124.01-0.1-.08a4.964,4.964,0,0,1-2.149-4.01v-0.14Zm16.082,45.55a5.133,5.133,0,0,0-.394-0.72l-0.387-.58h17.343l-7.8,5.13-9.584,2.75-1.4.04,0.83-.69A5.081,5.081,0,0,0,865.67,4558.18Zm-13.428-1.3-5.966,1.24-4.614-1.24h10.58Zm-22.43,27.45-3.792,3.76a1.609,1.609,0,0,1-2.263-.01l-17.446-17.52a1.607,1.607,0,0,1-.462-1.13,1.59,1.59,0,0,1,.472-1.13l3.794-3.76a1.6,1.6,0,0,1,1.131-.46h0a1.431,1.431,0,0,1,.294.03,1.55,1.55,0,0,1,.831.44l17.447,17.52A1.6,1.6,0,0,1,829.812,4584.33Zm58.67-23.84a0.332,0.332,0,0,0-.088.07l-10.157,8.97a27.775,27.775,0,0,1-9.755,4.92l-5.911,1.62a27.845,27.845,0,0,1-11.865.64,52.014,52.014,0,0,0-8.272-.78,25.83,25.83,0,0,0-5.811.6,13.542,13.542,0,0,1-2.881.29,5.673,5.673,0,0,0-4.035,1.17l-0.262.21-13.47-13.53,5.2-3.45a15.424,15.424,0,0,1,9.9-4.34h0.076a11.76,11.76,0,0,1,3.435.64l11.334,3.05a1.229,1.229,0,0,0,.572.01l13.922-2.89a2.779,2.779,0,0,1,2.105.41,2.539,2.539,0,0,1,.9,1.07,2.621,2.621,0,0,1-1.211,3.38l-4.747,2.5a1.225,1.225,0,0,0,.589,2.31l7.062-.15a1.087,1.087,0,0,0,.315-0.05l9.927-2.86a1.087,1.087,0,0,0,.337-0.16l10.015-6.61c1.4-.86,2.489-0.82,3.071.04A2.269,2.269,0,0,1,888.482,4560.49Z" transform="translate(-800 -4509)"/>
</svg>
