<svg xmlns="http://www.w3.org/2000/svg" width="120" height="79" viewBox="0 0 120 79">
  <metadata><?xpacket begin="﻿" id="W5M0MpCehiHzreSzNTczkc9d"?>
<x:xmpmeta xmlns:x="adobe:ns:meta/" x:xmptk="Adobe XMP Core 5.6-c142 79.160924, 2017/07/13-01:06:39        ">
   <rdf:RDF xmlns:rdf="http://www.w3.org/1999/02/22-rdf-syntax-ns#">
      <rdf:Description rdf:about=""/>
   </rdf:RDF>
</x:xmpmeta>
                                                                                                    
                                                                                                    
                                                                                                    
                                                                                                    
                                                                                                    
                                                                                                    
                                                                                                    
                                                                                                    
                                                                                                    
                                                                                                    
                                                                                                    
                                                                                                    
                                                                                                    
                                                                                                    
                                                                                                    
                                                                                                    
                                                                                                    
                                                                                                    
                                                                                                    
                                                                                                    
                           
<?xpacket end="w"?></metadata>
<defs>
    <style>
      .cls-1 {
        fill: #b8a177;
        fill-rule: evenodd;
      }
    </style>
  </defs>
  <path class="cls-1" d="M1214.48,4439.71a0.528,0.528,0,0,0,.01.13l0.05,0.26-0.44.24v0.01l0.48-.15,0.05,0.11a0.542,0.542,0,0,0,.06.11,0.642,0.642,0,0,0,.1.13l0.22,0.21a0.962,0.962,0,0,0,.15.09l0.42,0.14a1.227,1.227,0,0,0,.17.01h116.94a1.275,1.275,0,0,0,1.23-.92,1.305,1.305,0,0,0-.52-1.45l-15.73-10.48a1.293,1.293,0,0,0-1.77.36,1.311,1.311,0,0,0,.36,1.8l12.17,8.11h-43.27l13.29-19.97,11.86,7.55a1.29,1.29,0,0,0,1.78-.36,1.311,1.311,0,0,0-.36-1.8l-11.85-7.54,6.85-10.29h0l0.08-.12a1.163,1.163,0,0,0,.21-0.57l0.04-.15,0.19-.39,0.12-.08a6.188,6.188,0,0,0,1.02-.95c0.36-.37.81-0.83,1.48-1.5a11.17,11.17,0,0,0,2.56-11.58l-0.1-.28,0.19-.22c0.31-.36.67-0.7,1.05-1.06,1.36-1.28,2.76-2.59,2.76-5.17a5.8,5.8,0,0,0-1.79-4.2l-0.16-.15v-5.14h7.45a1.3,1.3,0,0,0,0-2.59h-6.32l5.45-7.27h0.87a1.3,1.3,0,0,0,0-2.59h-95.21a1.3,1.3,0,0,0,0,2.59h0.73l4.67,7.27h-5.4a1.3,1.3,0,0,0,0,2.59h6.26v5.14l-0.16.15a5.856,5.856,0,0,0-.11,8.3l2.33,2.35-0.11.3a11.182,11.182,0,0,0,2.57,11.57c0.68,0.68,1.14,1.15,1.47,1.49a6.37,6.37,0,0,0,1.02.95l0.12,0.08,0.27,0.61a1.348,1.348,0,0,0,.2.5l7.15,10.74-11.21,7.22a1.291,1.291,0,0,0,1.43,2.15l11.2-7.23,13.08,19.65h-42.15l11.92-8.07a1.3,1.3,0,0,0,.36-1.79,1.316,1.316,0,0,0-1.78-.36l-15.43,10.43a0.763,0.763,0,0,1-.11.08l-0.42-.3,0.34,0.38-0.16.2-0.47-.2,0.41,0.3-0.5-.13h0l0.44,0.26-0.53-.03,0.49,0.13-0.53.04,0.5,0.09-0.51.02h0l0.49,0.1A0.76,0.76,0,0,0,1214.48,4439.71Zm83.27-24.84-21.62-14.41,3.58-2.42a1.291,1.291,0,0,0-1.43-2.15l-4.47,3.02-15.21-10.16-1.76-2.01a9.112,9.112,0,0,1-.9-0.89c-1.44-1.54-4.11-4.41-8.88-4.41a10.81,10.81,0,0,0-3.71.65l-0.3.11-2.33-2.35a5.625,5.625,0,0,0-4.08-1.69,4.35,4.35,0,0,0-.63.04l-0.56.06v-3.81h76.37v3.81l-0.56-.06a5.658,5.658,0,0,0-4.71,1.65l-2.33,2.35-0.3-.11a10.894,10.894,0,0,0-3.71-.65c-4.77,0-7.46,2.88-8.9,4.42a9.2,9.2,0,0,1-.89.89c-0.1.1-1.39,1.57-2.01,2.28l-0.12.1-4.51,2.71a1.29,1.29,0,0,0,1.44,2.14l5.02-3.05,0.34,0.08,0.15,0.11c5.5,5.55,8.67,8.76,10.57,10.69,1.96,1.98,2.53,2.56,2.77,2.75l0.35,0.29Zm10.31-14.45c-0.8.78-1.28,1.28-1.59,1.61-0.11.12-.22,0.23-0.3,0.31l-0.35.35-0.36-.36c-5.7-5.77-8.96-9.05-10.82-10.92-1.34-1.35-1.98-2-2.25-2.28l-0.34-.35,0.34-.35c0.24-.25.68-0.7,1.09-1.1l0.8-.82a8.4,8.4,0,0,1,7.64-2.3c2.99,0.63,7,3.9,8.24,8.11A7.822,7.822,0,0,1,1308.06,4400.42Zm5.46-15.25a4.423,4.423,0,0,1-1.23,1.58c-0.27.27-.53,0.52-0.84,0.84l-0.4.41-0.35-.44a20.01,20.01,0,0,0-1.47-1.59l-0.11-.1c-0.32-.32-0.71-0.71-1.18-1.19a10.676,10.676,0,0,0-.93-0.84l-0.43-.36,1.78-1.8a3.063,3.063,0,0,1,2.19-.94,3.286,3.286,0,0,1,2.71,1.47A3.1,3.1,0,0,1,1313.52,4385.17Zm4.22-20.58-4.51,6.02-3.86-6.02h8.37Zm-6.76,7.27h-8.63l4.65-6.2Zm-6.4-7.27-4.51,6.02-3.86-6.02h8.37Zm-6.77,7.27h-8.62l4.65-6.2Zm-6.39-7.27-4.51,6.02-3.86-6.02h8.37Zm-6.77,7.27h-8.62l4.65-6.2Zm-6.39-7.27-4.51,6.02-3.86-6.02h8.37Zm-6.77,7.27h-8.62l4.65-6.2Zm-6.39-7.27-4.51,6.02-3.86-6.02h8.37Zm-6.77,7.27h-8.62l4.65-6.2Zm-6.39-7.27-4.51,6.02-3.86-6.02h8.37Zm-6.76,7.27h-8.63l4.65-6.2Zm-14.77-7.27h8.37l-4.51,6.02Zm5.8,23.41-1.78-1.8a3.16,3.16,0,0,1-.68-3.48,3.113,3.113,0,0,1,2.92-1.97,3.9,3.9,0,0,1,2.95,1.67c0.22,0.23.42,0.45,0.64,0.67l0.42,0.4-0.45.36a10.577,10.577,0,0,0-.91.83c-0.49.5-.89,0.9-1.22,1.23a19.321,19.321,0,0,0-1.54,1.65Zm5.6,14.33-0.38.35-0.34-.38c-0.21-.24-0.47-0.49-0.77-0.77-1.42-1.34-3.56-3.36-3.56-7.09,0-3.58,1.82-5.38,3.58-7.13l0.79-.79a8.306,8.306,0,0,1,11.85-.01l1.24,1.24c0.3,0.31.53,0.54,0.66,0.68l0.34,0.36-0.35.35c-5.89,5.91-9.2,9.28-10.99,11.1C1242.71,4401.43,1242.09,4402.06,1241.81,4402.33Zm1.06,2.51,0.34-.29c0.25-.21.8-0.77,2.86-2.85,1.9-1.93,5.06-5.13,10.47-10.58l0.08-.08,0.48-.17,14.4,9.6-21.75,14.71Zm8.31,12.48,22.64-15.3,22.5,14.99-14.24,21.41h-16.86Z" transform="translate(-1214 -4362)"/>
</svg>
