<svg xmlns="http://www.w3.org/2000/svg" width="117" height="79" viewBox="0 0 117 79">
  <metadata><?xpacket begin="﻿" id="W5M0MpCehiHzreSzNTczkc9d"?>
<x:xmpmeta xmlns:x="adobe:ns:meta/" x:xmptk="Adobe XMP Core 5.6-c142 79.160924, 2017/07/13-01:06:39        ">
   <rdf:RDF xmlns:rdf="http://www.w3.org/1999/02/22-rdf-syntax-ns#">
      <rdf:Description rdf:about=""/>
   </rdf:RDF>
</x:xmpmeta>
                                                                                                    
                                                                                                    
                                                                                                    
                                                                                                    
                                                                                                    
                                                                                                    
                                                                                                    
                                                                                                    
                                                                                                    
                                                                                                    
                                                                                                    
                                                                                                    
                                                                                                    
                                                                                                    
                                                                                                    
                                                                                                    
                                                                                                    
                                                                                                    
                                                                                                    
                                                                                                    
                           
<?xpacket end="w"?></metadata>
<defs>
    <style>
      .cls-1 {
        fill: #b8a177;
        fill-rule: evenodd;
      }
    </style>
  </defs>
  <path class="cls-1" d="M393.582,4582.47a4.54,4.54,0,0,0,6.5,0,4.707,4.707,0,0,0,0-6.59,4.563,4.563,0,0,0-6.5,0A4.7,4.7,0,0,0,393.582,4582.47Zm1.661-4.9a2.259,2.259,0,1,1,3.179,3.21,2.223,2.223,0,0,1-3.181,0A2.284,2.284,0,0,1,395.243,4577.57Zm63.506-23.33c-0.733-.41-1.464-0.86-2.172-1.34l-11.121-7.61a19.587,19.587,0,0,0-11.1-3.45h-20.41a19.567,19.567,0,0,0-14,5.86,27.524,27.524,0,0,1-6.806,5.04,3.936,3.936,0,0,0,1.783,7.41h6.958a1.2,1.2,0,0,0,0-2.39h-6.958a1.531,1.531,0,0,1-1.519-1.54,1.513,1.513,0,0,1,.818-1.35,30.568,30.568,0,0,0,7.379-5.47,17.267,17.267,0,0,1,12.34-5.17h5.075v13.53H412.93a1.2,1.2,0,0,0,0,2.39h46.1a2.018,2.018,0,0,0,2-2.03A4.442,4.442,0,0,0,458.749,4554.24Zm-37.377,3.52v-13.53h12.985a17.227,17.227,0,0,1,9.787,3.04l11.12,7.61c0.767,0.52,1.559,1.01,2.355,1.45a3.177,3.177,0,0,1,.378.27l1.292,1.16H421.372Zm49.5,24.71a4.54,4.54,0,0,0,6.5,0,4.7,4.7,0,0,0,0-6.59,4.563,4.563,0,0,0-6.5,0A4.707,4.707,0,0,0,470.873,4582.47Zm1.661-4.9a2.259,2.259,0,0,1,3.18,3.21,2.223,2.223,0,0,1-3.181,0A2.291,2.291,0,0,1,472.534,4577.57Zm2.717-42.41v-5.74h2.861c3.433,0,5.323-1.84,5.323-5.18v-0.14c0-3.31-1.824-5.13-5.135-5.13h-4.741a0.826,0.826,0,0,0-.937.73v15.46a1.116,1.116,0,0,0,1.314.76A1.156,1.156,0,0,0,475.251,4535.16Zm0-13.92h2.861c1.713,0,2.695,1.08,2.695,2.95v0.29c0,1.88-.982,2.96-2.695,2.96h-2.861v-6.2ZM494,4567.12a9.82,9.82,0,0,0-1.379-5.02l-0.531-.89a13.322,13.322,0,0,0-8.8-6.27l-1.989-.39v-9.84h9.464a3.256,3.256,0,0,0,3.233-3.26v-27.18a3.249,3.249,0,0,0-3.233-3.26H463.817a3.248,3.248,0,0,0-3.232,3.26v10.31a1.165,1.165,0,1,0,2.329,0v-10.31a0.909,0.909,0,0,1,.9-0.91h26.948a0.909,0.909,0,0,1,.9.91v27.18a0.909,0.909,0,0,1-.9.91H463.817a0.909,0.909,0,0,1-.9-0.91v-7.8a1.165,1.165,0,1,0-2.329,0v7.8a3.255,3.255,0,0,0,3.232,3.26h10.7v8.47l-6.572-1.33a23.865,23.865,0,0,1-8.258-3.94l-11.12-7.61a24.721,24.721,0,0,0-13.985-4.33h-20.41a24.663,24.663,0,0,0-17.633,7.38,22.486,22.486,0,0,1-11.337,6.19l-2.412.52a7.388,7.388,0,0,0-5.792,7.22v16.49a4.483,4.483,0,0,0,2.622,4.09l6.938,3.12,0.049,0.26a10.818,10.818,0,0,0,2.923,5.59,10.568,10.568,0,0,0,15.054,0,10.813,10.813,0,0,0,2.685-4.6l0.138-.47H464l0.137,0.47a10.864,10.864,0,0,0,2.686,4.6,10.546,10.546,0,0,0,15.055,0,10.753,10.753,0,0,0,2.685-4.6l0.137-.47h3.569a5.779,5.779,0,0,0,5.728-5.81v-8.83Zm-17.15-22.41h2.124v9.37l-2.124-.43v-8.94Zm-73.921,40.43a8.23,8.23,0,0,1-11.737,0,8.52,8.52,0,0,1-1.681-9.42l0.581-1.08,0.5-.69c0.059-.08.112-0.14,0.164-0.2l0.124-.15c0.1-.11.2-0.22,0.294-0.31l0.079-.08,0.243-.24,0.082-.07c0.075-.06.159-0.14,0.268-0.23a8.247,8.247,0,0,1,10.459.02l0.394,0.34c0.086,0.08.161,0.16,0.236,0.23,0.106,0.11.21,0.22,0.31,0.34,0.052,0.06.1,0.11,0.148,0.17a1.976,1.976,0,0,1,.136.17,3.033,3.033,0,0,1,.191.25l0.064,0.08c0.067,0.1.131,0.19,0.2,0.29A8.533,8.533,0,0,1,402.928,4585.14Zm77.292,0a8.229,8.229,0,0,1-11.736,0,8.516,8.516,0,0,1-1.074-10.54c0.092-.14.155-0.23,0.219-0.32l0.529-.67c0.116-.13.219-0.24,0.326-0.35a8.229,8.229,0,0,1,11.736,0c0.107,0.11.212,0.22,0.314,0.34l0.281,0.33c0.063,0.08.119,0.16,0.175,0.24l0.079,0.1c0.07,0.1.136,0.19,0.2,0.3A8.524,8.524,0,0,1,480.22,4585.14Zm11.429-9.19a3.4,3.4,0,0,1-3.378,3.42h-3.253l-0.025-.64a10.689,10.689,0,0,0-2.353-6.3c-0.129-.16-0.225-0.27-0.339-0.4-0.156-.18-0.262-0.29-0.369-0.4a10.492,10.492,0,0,0-9.674-3.01,10.531,10.531,0,0,0-5.437,2.95c-0.157.17-.262,0.28-0.361,0.39l-0.451-.25,0.378,0.34c-0.1.11-.194,0.22-0.279,0.32a10.747,10.747,0,0,0-2.4,6.36l-0.025.64h-55.96l-0.026-.64a10.771,10.771,0,0,0-2.388-6.35c-0.1-.11-0.2-0.23-0.323-0.38-0.152-.17-0.273-0.3-0.4-0.42a10.561,10.561,0,0,0-15.058-.01c-0.117.12-.232,0.24-0.344,0.37l-0.1.11c-0.078.09-.155,0.19-0.232,0.28l-0.405.52c-0.2.28-.385,0.57-0.569,0.88-0.086.15-.166,0.3-0.249,0.46a10.788,10.788,0,0,0-1.081,3.26l-0.134.86-5.842-2.63a2.105,2.105,0,0,1-1.224-1.91v-16.49a5,5,0,0,1,3.923-4.89l2.413-.51a24.836,24.836,0,0,0,12.511-6.84,22.361,22.361,0,0,1,15.978-6.69h20.41a22.366,22.366,0,0,1,12.673,3.93l11.119,7.61a26.371,26.371,0,0,0,9.113,4.31l15.343,3.09a10.948,10.948,0,0,1,7.245,5.15l0.531,0.9a7.389,7.389,0,0,1,1.04,3.78v8.83Zm-70.8-12.2a1.2,1.2,0,0,0,0,2.39h5.193a1.2,1.2,0,0,0,0-2.39h-5.193Z" transform="translate(-377 -4511)"/>
</svg>
