<?xml version="1.0" encoding="iso-8859-1"?>
<!-- Generator: Adobe Illustrator 19.1.0, SVG Export Plug-In . SVG Version: 6.00 Build 0)  -->
<svg xmlns="http://www.w3.org/2000/svg" xmlns:xlink="http://www.w3.org/1999/xlink" version="1.1" id="Capa_1" x="0px" y="0px" viewBox="0 0 64.002 64.002" style="enable-background:new 0 0 64.002 64.002;" xml:space="preserve" width="512px" height="512px">
<g>
	<g>
	</g>
	<g>
	</g>
	<g>
	</g>
	<g>
	</g>
	<g>
	</g>
	<g>
	</g>
	<g>
	</g>
	<g>
	</g>
	<g>
	</g>
	<g>
	</g>
	<g>
	</g>
	<g>
	</g>
	<g>
	</g>
	<g>
	</g>
	<g>
	</g>
</g>
<g>
	<path d="M54.628,9.375c-6.044-6.045-14.08-9.374-22.627-9.374c-8.548,0-16.583,3.329-22.627,9.374C3.329,15.419,0,23.454,0,32.001   s3.329,16.582,9.374,22.626c6.044,6.045,14.079,9.374,22.627,9.374c8.547,0,16.583-3.329,22.627-9.374   c6.045-6.044,9.374-14.079,9.374-22.626S60.673,15.419,54.628,9.375z M53.214,53.213c-5.666,5.667-13.2,8.788-21.213,8.788   c-8.014,0-15.547-3.121-21.213-8.788C5.121,47.547,2,40.014,2,32.001s3.121-15.546,8.788-21.212   c5.666-5.667,13.199-8.788,21.213-8.788c8.013,0,15.547,3.121,21.213,8.788c5.667,5.666,8.788,13.199,8.788,21.212   S58.881,47.547,53.214,53.213z" fill="#b8a177"/>
	<path d="M31.001,16.001h-6h-1H23v18h-4v2L23,36v4.001h-4v2h4v6h2v-6h7v-2h-7v-4.002l5.909-0.002   c0.054,0.005,0.392,0.033,0.923,0.033c1.749,0,5.594-0.308,8.304-2.784c1.9-1.735,2.864-4.173,2.864-7.245s-0.964-5.51-2.864-7.245   C36.603,15.527,31.14,15.983,31.001,16.001z M38.796,31.763c-2.875,2.633-7.655,2.248-7.795,2.238H25V18l6.091-0.003   c0.047-0.005,4.806-0.403,7.696,2.235c1.469,1.341,2.213,3.283,2.213,5.769C41.001,28.483,40.259,30.422,38.796,31.763z" fill="#b8a177"/>
</g>
<g>
</g>
<g>
</g>
<g>
</g>
<g>
</g>
<g>
</g>
<g>
</g>
<g>
</g>
<g>
</g>
<g>
</g>
<g>
</g>
<g>
</g>
<g>
</g>
<g>
</g>
<g>
</g>
<g>
</g>
</svg>
