<svg xmlns="http://www.w3.org/2000/svg" width="50" height="50" viewBox="0 0 50 50">
  <metadata><?xpacket begin="﻿" id="W5M0MpCehiHzreSzNTczkc9d"?>
<x:xmpmeta xmlns:x="adobe:ns:meta/" x:xmptk="Adobe XMP Core 5.6-c142 79.160924, 2017/07/13-01:06:39        ">
   <rdf:RDF xmlns:rdf="http://www.w3.org/1999/02/22-rdf-syntax-ns#">
      <rdf:Description rdf:about=""/>
   </rdf:RDF>
</x:xmpmeta>
                                                                                                    
                                                                                                    
                                                                                                    
                                                                                                    
                                                                                                    
                                                                                                    
                                                                                                    
                                                                                                    
                                                                                                    
                                                                                                    
                                                                                                    
                                                                                                    
                                                                                                    
                                                                                                    
                                                                                                    
                                                                                                    
                                                                                                    
                                                                                                    
                                                                                                    
                                                                                                    
                           
<?xpacket end="w"?></metadata>
<defs>
    <style>
      .cls-1 {
        fill: #171310;
        fill-rule: evenodd;
      }
    </style>
  </defs>
  <path id="Forma_1" data-name="Forma 1" class="cls-1" d="M430,7894a24.992,24.992,0,1,1,21.9-12.94,0.832,0.832,0,1,1-1.459-.8,23.379,23.379,0,1,0-3.275,4.54,0.834,0.834,0,1,1,1.226,1.13A25.067,25.067,0,0,1,430,7894Zm9.887-20.16a1.28,1.28,0,0,0-.071-0.14,10.9,10.9,0,0,0-2.088-2.42l-0.022-.02-0.011-.01-0.011-.01h-0.011q-0.7-.675-0.885-0.9a0.848,0.848,0,0,1-.153-0.89,8.089,8.089,0,0,1,.984-1.43c0.3-.39.535-0.7,0.71-0.94,1.261-1.67,1.808-2.75,1.64-3.22l-0.065-.1a0.644,0.644,0,0,0-.339-0.19,1.757,1.757,0,0,0-.7-0.02l-3.148.02a0.4,0.4,0,0,0-.219,0c-0.095.03-.142,0.04-0.142,0.04l-0.055.02-0.043.04a0.506,0.506,0,0,0-.121.11,0.937,0.937,0,0,0-.109.19,17.5,17.5,0,0,1-1.17,2.47c-0.269.45-.517,0.84-0.743,1.18a5.977,5.977,0,0,1-.568.73,4.371,4.371,0,0,1-.416.38,0.449,0.449,0,0,1-.284.12c-0.066-.02-0.127-0.03-0.186-0.05a0.685,0.685,0,0,1-.246-0.26,1.281,1.281,0,0,1-.126-0.43c-0.021-.17-0.034-0.32-0.038-0.44s0-.3.006-0.53,0.011-.38.011-0.46q0-.42.016-0.9,0.017-.495.027-0.78c0.008-.19.011-0.39,0.011-0.6a2.6,2.6,0,0,0-.038-0.5,1.836,1.836,0,0,0-.115-0.35,0.588,0.588,0,0,0-.224-0.26,1.421,1.421,0,0,0-.366-0.15,7.293,7.293,0,0,0-1.476-.14,7.053,7.053,0,0,0-2.613.26,1.44,1.44,0,0,0-.415.33c-0.132.16-.15,0.25-0.055,0.26a1.389,1.389,0,0,1,.929.47l0.066,0.14a2,2,0,0,1,.153.5,5.058,5.058,0,0,1,.1.8,8.412,8.412,0,0,1,0,1.37c-0.036.38-.071,0.67-0.1,0.89a1.769,1.769,0,0,1-.147.51,2.7,2.7,0,0,1-.131.24,0.281,0.281,0,0,1-.055.06,0.976,0.976,0,0,1-.3.05,0.7,0.7,0,0,1-.372-0.15,2.9,2.9,0,0,1-.454-0.42,5.876,5.876,0,0,1-.53-0.75q-0.3-.5-0.612-1.14l-0.175-.32c-0.109-.21-0.259-0.5-0.448-0.89s-0.357-.77-0.5-1.14a0.732,0.732,0,0,0-.263-0.35l-0.054-.03a0.646,0.646,0,0,0-.175-0.09,1.089,1.089,0,0,0-.252-0.08l-3,.03a0.79,0.79,0,0,0-.623.2l-0.044.07a0.358,0.358,0,0,0-.033.18,0.86,0.86,0,0,0,.066.29c0.437,1.03.913,2.02,1.426,2.98s0.961,1.73,1.34,2.31,0.765,1.14,1.158,1.66,0.655,0.85.782,0.99,0.228,0.26.3,0.33l0.273,0.26a5.688,5.688,0,0,0,.771.63,12.476,12.476,0,0,0,1.126.73,6.437,6.437,0,0,0,1.438.58,4.924,4.924,0,0,0,1.6.18h1.257a0.856,0.856,0,0,0,.58-0.24l0.043-.06a0.675,0.675,0,0,0,.082-0.2,1.119,1.119,0,0,0,.038-0.3,3.69,3.69,0,0,1,.071-0.85,2.336,2.336,0,0,1,.186-0.57,1.218,1.218,0,0,1,.235-0.32,0.981,0.981,0,0,1,.186-0.16c0.037-.02.066-0.03,0.087-0.04a0.694,0.694,0,0,1,.618.17,3.336,3.336,0,0,1,.667.64q0.312,0.375.749,0.84a5.363,5.363,0,0,0,.765.71l0.219,0.13a2.911,2.911,0,0,0,.569.24,1.209,1.209,0,0,0,.612.05l2.8-.04a1.273,1.273,0,0,0,.645-0.14,0.539,0.539,0,0,0,.274-0.3,0.831,0.831,0,0,0,0-.37A1.243,1.243,0,0,0,439.887,7873.84Z" transform="translate(-405 -7844)"/>
</svg>
