<svg width="20" height="20" viewBox="0 0 20 20" fill="none" xmlns="http://www.w3.org/2000/svg">
<g clip-path="url(#clip0)">
<path d="M1.91961 6.98671C2.1726 7.16524 2.93523 7.69547 4.20753 8.57713C5.47986 9.45879 6.45456 10.1376 7.13165 10.6137C7.20604 10.6659 7.36409 10.7794 7.60587 10.9542C7.84769 11.1292 8.04861 11.2706 8.2085 11.3784C8.3685 11.4862 8.56192 11.6072 8.78896 11.7411C9.01592 11.8748 9.22987 11.9755 9.43076 12.0421C9.63168 12.1092 9.81768 12.1425 9.98878 12.1425H10H10.0113C10.1824 12.1425 10.3684 12.1092 10.5694 12.0421C10.7702 11.9755 10.9843 11.8747 11.2111 11.7411C11.438 11.607 11.6314 11.4862 11.7914 11.3784C11.9514 11.2706 12.1522 11.1292 12.3941 10.9542C12.6358 10.7792 12.794 10.6659 12.8684 10.6137C13.5528 10.1376 15.2941 8.92852 18.0916 6.98647C18.6347 6.60717 19.0885 6.14949 19.453 5.61375C19.8178 5.07824 20 4.51647 20 3.92873C20 3.43759 19.8232 3.01717 19.4697 2.6675C19.1163 2.31775 18.6977 2.14297 18.2142 2.14297H1.78564C1.21276 2.14297 0.771892 2.3364 0.463112 2.72324C0.154371 3.11017 0 3.5938 0 4.17411C0 4.64285 0.204681 5.1508 0.613847 5.69764C1.02297 6.24452 1.45837 6.67425 1.91961 6.98671Z" fill="#1D1D1D"/>
<path d="M18.8838 8.18075C16.4436 9.83239 14.5907 11.116 13.3259 12.0313C12.9018 12.3436 12.5578 12.5875 12.2936 12.7622C12.0294 12.9371 11.678 13.1156 11.2389 13.2979C10.8 13.4803 10.3909 13.5713 10.0114 13.5713H10H9.98882C9.60936 13.5713 9.20008 13.4803 8.76116 13.2979C8.32225 13.1156 7.97062 12.9371 7.70649 12.7622C7.44243 12.5875 7.09827 12.3436 6.67421 12.0313C5.66969 11.2947 3.82076 10.011 1.12735 8.18075C0.703131 7.8982 0.327387 7.57433 0 7.20981V16.0712C0 16.5625 0.174776 16.9827 0.524524 17.3324C0.874193 17.6823 1.29466 17.8571 1.78576 17.8571H18.2144C18.7054 17.8571 19.1258 17.6823 19.4755 17.3324C19.8253 16.9826 20 16.5626 20 16.0712V7.20981C19.68 7.56679 19.3081 7.89066 18.8838 8.18075Z" fill="#1D1D1D"/>
</g>
<defs>
<clipPath id="clip0">
<rect width="20" height="20" fill="white"/>
</clipPath>
</defs>
</svg>
