<svg width="20" height="20" viewBox="0 0 20 20" fill="none" xmlns="http://www.w3.org/2000/svg">
<g clip-path="url(#clip0)">
<path d="M19.1656 11.4478C19.2402 10.9756 19.2795 10.4925 19.2795 9.99947C19.2795 4.87465 15.1252 0.720492 10.0003 0.720492C9.50851 0.720492 9.02404 0.760992 8.55227 0.834785C7.69768 0.306005 6.68903 0 5.60809 0C2.51135 0 0.000854492 2.51017 0.000854492 5.60723C0.000854492 6.68795 0.307046 7.69575 0.835592 8.55207C0.762451 9.02505 0.722183 9.50658 0.722183 9.99965C0.722183 15.1248 4.87634 19.2777 10.0001 19.2777C10.4923 19.2777 10.9769 19.2398 11.4486 19.1654C12.3041 19.6931 13.3119 20 14.3926 20C17.4902 20 20.0004 17.4891 20.0004 14.3922C20.0006 13.311 19.6946 12.3035 19.1656 11.4478ZM14.4058 14.2197C14.0133 14.7847 13.4367 15.2263 12.6832 15.5439C11.9282 15.8623 11.0359 16.0207 10.0054 16.0207C8.7703 16.0207 7.74771 15.8046 6.94054 15.3681C6.36838 15.0556 5.90303 14.6364 5.54527 14.1136C5.18677 13.5904 5.005 13.078 5.005 12.5785C5.005 12.2837 5.11739 12.0274 5.33617 11.8185C5.55722 11.608 5.84193 11.5025 6.17797 11.5025C6.45324 11.5025 6.68968 11.5854 6.88219 11.7497C7.07325 11.9139 7.23353 12.1527 7.36461 12.4677C7.52173 12.8327 7.69237 13.1379 7.87395 13.3813C8.05441 13.6218 8.30838 13.8225 8.63731 13.9796C8.96262 14.1372 9.39556 14.2159 9.93731 14.2159C10.6787 14.2159 11.2779 14.0556 11.7365 13.7392C12.1974 13.4199 12.4187 13.0315 12.4187 12.5621C12.4187 12.1878 12.2994 11.8905 12.0546 11.6587C11.8076 11.4238 11.4886 11.245 11.0928 11.1203C10.6954 10.9942 10.1619 10.8605 9.4933 10.7197C8.59551 10.5237 7.84466 10.2957 7.2366 10.0337C6.62775 9.77083 6.14286 9.41145 5.78348 8.95749C5.42335 8.49906 5.24377 7.92927 5.24377 7.25439C5.24377 6.61085 5.43335 6.03534 5.81287 5.53446C6.1922 5.03219 6.74102 4.64774 7.45663 4.37996C8.16973 4.11227 9.00925 3.97835 9.97103 3.97835C10.7402 3.97835 11.4055 4.06735 11.9686 4.24441C12.5302 4.42278 12.9983 4.65816 13.3727 4.95351C13.7446 5.24822 14.0183 5.55906 14.1916 5.88525C14.3648 6.21241 14.4521 6.53195 14.4521 6.84376C14.4521 7.13368 14.3397 7.39663 14.1207 7.62708C13.9017 7.85785 13.6216 7.97549 13.2945 7.97442C12.9996 7.97442 12.7683 7.90639 12.6079 7.76238C12.4516 7.62308 12.2875 7.40128 12.11 7.09216C11.8857 6.66084 11.617 6.3248 11.3045 6.08445C11.0003 5.84856 10.4983 5.72576 9.79986 5.72725C9.15363 5.72725 8.63657 5.8593 8.24631 6.11755C7.85363 6.37994 7.66592 6.68437 7.66503 7.04106C7.66568 7.26457 7.72995 7.45303 7.85926 7.61419C7.99057 7.77685 8.17326 7.91778 8.40808 8.03659C8.64299 8.15725 8.88194 8.25057 9.12206 8.31771C9.36501 8.38658 9.76811 8.48613 10.3284 8.61795C11.0311 8.7694 11.6684 8.93861 12.2412 9.12302C12.8128 9.30836 13.3006 9.53188 13.7036 9.79817C14.1098 10.0637 14.4273 10.4022 14.6539 10.811C14.8822 11.2206 14.9959 11.7207 14.9959 12.3093C14.9967 13.018 14.7993 13.6554 14.4058 14.2197Z" fill="#00A4E8"/>
</g>
<defs>
<clipPath id="clip0">
<rect width="20" height="20" fill="white"/>
</clipPath>
</defs>
</svg>
