<svg width="20" height="20" viewBox="0 0 20 20" fill="none" xmlns="http://www.w3.org/2000/svg">
<path d="M0.353259 9.643L4.96166 11.363L6.74539 17.0995C6.85953 17.4669 7.30879 17.6027 7.60699 17.3589L10.1758 15.2647C10.4451 15.0453 10.8286 15.0344 11.11 15.2387L15.7432 18.6025C16.0622 18.8343 16.5141 18.6595 16.5941 18.2741L19.9882 1.948C20.0755 1.52693 19.6618 1.17566 19.2609 1.33073L0.347859 8.6268C-0.118874 8.8068 -0.114808 9.4676 0.353259 9.643ZM6.45793 10.4474L15.4645 4.90026C15.6263 4.80086 15.7929 5.01973 15.6539 5.14866L8.22086 12.058C7.95959 12.3012 7.79106 12.6267 7.74333 12.9799L7.49013 14.8563C7.45659 15.1069 7.10466 15.1317 7.03553 14.8893L6.06173 11.4676C5.95019 11.0773 6.11273 10.6605 6.45793 10.4474Z" fill="white"/>
</svg>
