<svg width="20" height="20" viewBox="0 0 20 20" fill="none" xmlns="http://www.w3.org/2000/svg">
<g clip-path="url(#clip0)">
<path d="M19.894 14.5999C19.8698 14.5477 19.8472 14.5044 19.8262 14.4697C19.4792 13.8448 18.8161 13.0777 17.8373 12.1682L17.8166 12.1474L17.8063 12.1372L17.7958 12.1267H17.7853C17.341 11.7032 17.0597 11.4185 16.9419 11.2727C16.7264 10.995 16.6781 10.7139 16.7959 10.4291C16.8791 10.2139 17.1918 9.75947 17.7331 9.06514C18.0178 8.69717 18.2433 8.40225 18.4099 8.18006C19.611 6.5833 20.1317 5.56294 19.9719 5.1186L19.9099 5.01476C19.8682 4.95224 19.7606 4.89506 19.5872 4.8429C19.4135 4.79085 19.1914 4.78225 18.9206 4.81693L15.9217 4.83765C15.8731 4.82043 15.8037 4.82204 15.7134 4.8429C15.6231 4.86376 15.5779 4.87423 15.5779 4.87423L15.5257 4.90031L15.4843 4.93164C15.4496 4.95235 15.4114 4.98879 15.3697 5.04087C15.3282 5.09277 15.2936 5.15368 15.2658 5.22309C14.9393 6.06309 14.5681 6.84407 14.1515 7.56601C13.8946 7.9965 13.6587 8.36957 13.4433 8.68546C13.2281 9.00124 13.0476 9.2339 12.9019 9.38304C12.756 9.53232 12.6244 9.65191 12.5061 9.74225C12.3881 9.83263 12.298 9.87082 12.2355 9.85685C12.173 9.84288 12.1141 9.82902 12.0583 9.81516C11.9612 9.75265 11.8831 9.66763 11.8242 9.56004C11.765 9.45244 11.7252 9.31702 11.7044 9.15388C11.6836 8.99063 11.6714 8.85021 11.6679 8.73215C11.6646 8.61423 11.6661 8.44744 11.6732 8.23225C11.6804 8.01696 11.6836 7.87129 11.6836 7.79491C11.6836 7.53107 11.6888 7.24472 11.6991 6.9358C11.7096 6.62688 11.7181 6.38211 11.7252 6.20179C11.7323 6.02129 11.7356 5.83032 11.7356 5.62899C11.7356 5.42766 11.7233 5.26977 11.6991 5.15518C11.6752 5.04073 11.6385 4.92963 11.5901 4.82193C11.5414 4.71433 11.4701 4.6311 11.3766 4.57202C11.2829 4.51301 11.1664 4.46618 11.0278 4.43138C10.6598 4.34811 10.1912 4.30307 9.62185 4.29607C8.33069 4.28221 7.50105 4.36558 7.13311 4.54609C6.98733 4.62235 6.85541 4.72655 6.73746 4.85836C6.61247 5.01115 6.59504 5.09452 6.68527 5.10824C7.10186 5.17064 7.39677 5.31992 7.57035 5.55594L7.6329 5.681C7.68155 5.77124 7.73013 5.93098 7.77875 6.16003C7.8273 6.38908 7.85863 6.64245 7.87241 6.92001C7.90706 7.42687 7.90706 7.86075 7.87241 8.22168C7.83765 8.58276 7.80483 8.86385 7.7735 9.06518C7.74217 9.26651 7.69534 9.42965 7.6329 9.55457C7.57035 9.67952 7.52873 9.75589 7.50787 9.78361C7.48704 9.81133 7.46968 9.8288 7.4559 9.83566C7.36566 9.87024 7.27182 9.88785 7.17469 9.88785C7.07742 9.88785 6.95947 9.8392 6.82065 9.74196C6.68188 9.64473 6.53785 9.51116 6.38856 9.34106C6.23928 9.17091 6.07093 8.93315 5.88342 8.62773C5.69606 8.32231 5.50166 7.96134 5.30033 7.54482L5.13376 7.24276C5.02963 7.04843 4.88739 6.76548 4.70689 6.39415C4.52628 6.02268 4.36664 5.66335 4.22786 5.31624C4.17238 5.17046 4.08904 5.05947 3.97799 4.9831L3.92587 4.95177C3.89122 4.92405 3.8356 4.89462 3.7593 4.86325C3.68289 4.83192 3.60316 4.80945 3.51978 4.79563L0.666572 4.81635C0.375011 4.81635 0.177184 4.8824 0.073018 5.01432L0.0313299 5.07673C0.0105041 5.11148 0 5.16699 0 5.2434C0 5.31978 0.0208258 5.41351 0.0625139 5.5245C0.47903 6.50342 0.931983 7.44751 1.42137 8.35692C1.91076 9.26632 2.33603 9.99887 2.69692 10.5539C3.05789 11.1094 3.42583 11.6336 3.80073 12.1263C4.17563 12.6192 4.42379 12.9351 4.54521 13.0739C4.66677 13.2129 4.76225 13.3169 4.83166 13.3863L5.09204 13.6362C5.25865 13.8028 5.5033 14.0024 5.82612 14.2349C6.14901 14.4676 6.50648 14.6966 6.89871 14.9224C7.291 15.1478 7.74739 15.3318 8.2681 15.4741C8.78875 15.6165 9.2955 15.6737 9.78842 15.6461H10.986C11.2288 15.6251 11.4128 15.5488 11.5379 15.4169L11.5793 15.3647C11.6072 15.3233 11.6333 15.2589 11.6573 15.1723C11.6817 15.0855 11.6938 14.99 11.6938 14.886C11.6867 14.5875 11.7094 14.3185 11.7614 14.0791C11.8133 13.8396 11.8724 13.6591 11.9386 13.5376C12.0047 13.4161 12.0793 13.3136 12.1624 13.2306C12.2456 13.1473 12.3049 13.0968 12.3397 13.0795C12.3743 13.062 12.4019 13.0502 12.4227 13.0431C12.5893 12.9875 12.7854 13.0413 13.0112 13.2046C13.2369 13.3677 13.4486 13.5692 13.6465 13.8086C13.8444 14.0482 14.0821 14.317 14.3597 14.6155C14.6376 14.9141 14.8805 15.136 15.0886 15.282L15.2968 15.4069C15.4359 15.4903 15.6164 15.5667 15.8386 15.6361C16.0604 15.7055 16.2547 15.7228 16.4215 15.6881L19.0872 15.6466C19.3509 15.6466 19.556 15.6029 19.7015 15.5163C19.8474 15.4295 19.934 15.3339 19.9619 15.2299C19.9898 15.1259 19.9913 15.0078 19.9672 14.8757C19.9425 14.744 19.9182 14.6519 19.894 14.5999Z" fill="white"/>
</g>
<defs>
<clipPath id="clip0">
<rect width="20" height="20" fill="white"/>
</clipPath>
</defs>
</svg>
