<svg width="64" height="64" viewBox="0 0 64 64" fill="none" xmlns="http://www.w3.org/2000/svg">
<g clip-path="url(#clip0)">
<path d="M32 1.6C14.3552 1.6 2.07817e-06 14.5195 2.07817e-06 30.4C2.07817e-06 35.9509 1.75574 41.328 5.08587 45.9776C4.45547 52.9504 2.76587 58.1269 0.312535 60.5792C-0.0117312 60.9035 -0.0927979 61.3995 0.112002 61.8091C0.293335 62.1749 0.666669 62.4 1.06667 62.4C1.11574 62.4 1.1648 62.3968 1.21494 62.3893C1.64694 62.3285 11.6821 60.8843 18.9408 56.6944C23.0624 58.3573 27.4528 59.2 32 59.2C49.6448 59.2 64 46.2805 64 30.4C64 14.5195 49.6448 1.6 32 1.6ZM17.0667 34.6667C14.7136 34.6667 12.8 32.7531 12.8 30.4C12.8 28.0469 14.7136 26.1333 17.0667 26.1333C19.4197 26.1333 21.3333 28.0469 21.3333 30.4C21.3333 32.7531 19.4197 34.6667 17.0667 34.6667ZM32 34.6667C29.6469 34.6667 27.7333 32.7531 27.7333 30.4C27.7333 28.0469 29.6469 26.1333 32 26.1333C34.3531 26.1333 36.2667 28.0469 36.2667 30.4C36.2667 32.7531 34.3531 34.6667 32 34.6667ZM46.9333 34.6667C44.5803 34.6667 42.6667 32.7531 42.6667 30.4C42.6667 28.0469 44.5803 26.1333 46.9333 26.1333C49.2864 26.1333 51.2 28.0469 51.2 30.4C51.2 32.7531 49.2864 34.6667 46.9333 34.6667Z" fill="#0066FF"/>
</g>
<defs>
<clipPath id="clip0">
<rect width="64" height="64" fill="white"/>
</clipPath>
</defs>
</svg>
