<svg width="64" height="64" viewBox="0 0 64 64" fill="none" xmlns="http://www.w3.org/2000/svg">
<path d="M54.2125 0H15.0037C12.0733 0 9.72894 2.40293 9.72894 5.27473V9.20147H12.0733C13.6557 9.20147 14.9451 10.4908 14.9451 12.0733C14.9451 13.6557 13.6557 14.9451 12.0733 14.9451H9.72894V19.1648H12.0733C13.6557 19.1648 14.9451 20.4542 14.9451 22.0366C14.9451 23.619 13.6557 24.9084 12.0733 24.9084H9.72894V29.1282H12.0733C13.6557 29.1282 14.9451 30.4176 14.9451 32C14.9451 33.5824 13.6557 34.8718 12.0733 34.8718H9.72894V29.1868H7.38461C5.8022 29.1868 4.51282 30.4762 4.51282 32.0586C4.51282 33.641 5.8022 34.9304 7.38461 34.9304H9.72894V39.0916H12.0733C13.6557 39.0916 14.9451 40.381 14.9451 41.9634C14.9451 43.5458 13.6557 44.8352 12.0733 44.8352H9.72894V39.1502H7.38461C5.8022 39.1502 4.51282 40.4396 4.51282 42.022C4.51282 43.6044 5.8022 44.8938 7.38461 44.8938H9.72894V49.0549H12.0733C13.6557 49.0549 14.9451 50.3443 14.9451 51.9267C14.9451 53.5092 13.6557 54.7985 12.0733 54.7985H9.72894V49.1722H7.38461C5.8022 49.1722 4.51282 50.4615 4.51282 52.044C4.51282 53.6264 5.8022 54.9158 7.38461 54.9158H9.72894V58.7253C9.72894 61.6557 12.1319 64 15.0037 64H54.2125C57.1429 64 59.4872 61.5971 59.4872 58.7253V5.27473C59.4872 2.40293 57.1429 0 54.2125 0ZM47.707 44.7766C39.0916 49.5238 23.619 35.2234 22.3883 26.3736C21.8608 22.7985 27.7216 15.1209 29.8901 19.9267L32.1172 24.9084C33.1722 27.663 29.9487 28.4249 30.0073 29.8901C30.0659 30.8864 32.4689 33.8169 33.0549 34.4029C34.2271 35.6923 37.8608 38.5641 39.7949 39.033C40.7326 39.2674 41.4945 38.0952 41.9048 37.6264C43.663 35.7509 43.7216 35.1648 45.3626 36.044L50.3443 38.7399C52.2198 39.9707 49.5824 43.7216 47.707 44.7766Z" fill="#0066FF"/>
<path d="M7.38461 9.20147C5.8022 9.20147 4.51282 10.4908 4.51282 12.0733C4.51282 13.6557 5.8022 14.9451 7.38461 14.9451H9.72894V9.20147H7.38461Z" fill="#0066FF"/>
<path d="M7.38461 19.1648C5.8022 19.1648 4.51282 20.4542 4.51282 22.0366C4.51282 23.6191 5.8022 24.9084 7.38461 24.9084H9.72894V19.1648H7.38461Z" fill="#0066FF"/>
</svg>
