<svg width="64" height="64" viewBox="0 0 64 64" fill="none" xmlns="http://www.w3.org/2000/svg">
<g clip-path="url(#clip0)">
<path d="M35.1399 37.9422V36.5194C35.1399 34.787 33.7336 33.3821 32.0025 33.3821C30.2689 33.3821 28.8639 34.787 28.8639 36.5194V37.9422C28.8639 39.6733 30.2689 41.0795 32.0025 41.0795C33.7336 41.0795 35.1399 39.6745 35.1399 37.9422Z" fill="#0066FF"/>
<path d="M37.2913 39.6771C36.5971 41.9533 34.5017 43.6258 32.0025 43.6258C29.5021 43.6258 27.4067 41.9546 26.7112 39.6771H5.0964C3.73218 39.6771 2.44311 39.3599 1.28651 38.8097V53.1614C1.28651 55.9637 3.57933 58.2565 6.38165 58.2565H57.6209C60.4232 58.2565 62.716 55.9637 62.716 53.1614V38.8109C61.5594 39.3612 60.2704 39.6784 58.9074 39.6784L37.2913 39.6771Z" fill="#0066FF"/>
<path d="M58.6934 13.9059H46.4625C45.725 9.28716 41.7215 5.74349 36.899 5.74349H27.0985C22.2746 5.74349 18.275 9.28716 17.5349 13.9059H5.30658C2.38706 13.9059 -0.00128174 16.1987 -0.00128174 19.001V30.7619C-0.00128174 33.5744 2.28006 35.857 5.09385 35.857H26.4679C26.5406 34.3934 27.1698 33.0725 28.1646 32.121C28.1952 32.093 28.2309 32.0688 28.2627 32.0408C28.4831 31.8382 28.7124 31.6472 28.9633 31.4816C29.0525 31.4217 29.1544 31.3809 29.2473 31.3274C29.4537 31.209 29.6575 31.0854 29.8804 30.9937C30.0549 30.9211 30.2434 30.8791 30.4269 30.8243C30.5848 30.7772 30.7351 30.7148 30.8994 30.6816C31.2561 30.609 31.6242 30.5708 32 30.5708C32.377 30.5708 32.7439 30.6103 33.0993 30.6816C33.2623 30.7148 33.4139 30.7772 33.5731 30.8243C33.7565 30.8791 33.9425 30.9211 34.1196 30.995C34.3412 31.0867 34.5437 31.209 34.7501 31.3274C34.8431 31.3822 34.945 31.423 35.0367 31.4828C35.2876 31.6472 35.5156 31.8382 35.736 32.0408C35.7678 32.0701 35.8073 32.093 35.8354 32.1236C36.8314 33.0763 37.4594 34.3934 37.532 35.8596H58.9061C61.7199 35.8596 64.0013 33.5782 64.0013 30.7644V19.0036C64.0013 16.1987 61.6129 13.9059 58.6934 13.9059ZM22.4428 13.9059C23.0924 11.943 24.9228 10.5125 27.101 10.5125H36.9015C39.0784 10.5125 40.9088 11.943 41.5585 13.9059H22.4428Z" fill="#0066FF"/>
</g>
<defs>
<clipPath id="clip0">
<rect width="64" height="64" fill="white"/>
</clipPath>
</defs>
</svg>
